<?xml version="1.0" encoding="UTF-8"?>
<!DOCTYPE svg PUBLIC "-//W3C//DTD SVG 1.1//EN" "http://www.w3.org/Graphics/SVG/1.1/DTD/svg11.dtd">
<svg xmlns="http://www.w3.org/2000/svg" version="1.1" width="128px" height="128px" style="shape-rendering:geometricPrecision; text-rendering:geometricPrecision; image-rendering:optimizeQuality; fill-rule:evenodd; clip-rule:evenodd" xmlns:xlink="http://www.w3.org/1999/xlink">
<g><path style="opacity:1" fill="#fefefe" d="M 50.5,-0.5 C 59.1667,-0.5 67.8333,-0.5 76.5,-0.5C 103.167,6.83333 120.167,23.8333 127.5,50.5C 127.5,59.1667 127.5,67.8333 127.5,76.5C 120.167,103.167 103.167,120.167 76.5,127.5C 67.8333,127.5 59.1667,127.5 50.5,127.5C 23.8333,120.167 6.83333,103.167 -0.5,76.5C -0.5,67.8333 -0.5,59.1667 -0.5,50.5C 6.83333,23.8333 23.8333,6.83333 50.5,-0.5 Z M 61.5,12.5 C 93.2241,14.8907 110.891,31.8907 114.5,63.5C 111.167,94.1667 94.1667,111.167 63.5,114.5C 32.8333,111.167 15.8333,94.1667 12.5,63.5C 15.6828,33.6537 32.0161,16.6537 61.5,12.5 Z"/></g>
<g><path style="opacity:0.997" fill="#fdfdfd" d="M 56.5,37.5 C 61.1667,37.5 65.8333,37.5 70.5,37.5C 70.5,43.8333 70.5,50.1667 70.5,56.5C 76.8333,56.5 83.1667,56.5 89.5,56.5C 89.5,61.1667 89.5,65.8333 89.5,70.5C 83.1667,70.5 76.8333,70.5 70.5,70.5C 70.5,76.8333 70.5,83.1667 70.5,89.5C 65.8333,89.5 61.1667,89.5 56.5,89.5C 56.5,83.1667 56.5,76.8333 56.5,70.5C 50.1667,70.5 43.8333,70.5 37.5,70.5C 37.5,65.8333 37.5,61.1667 37.5,56.5C 43.8333,56.5 50.1667,56.5 56.5,56.5C 56.5,50.1667 56.5,43.8333 56.5,37.5 Z"/></g>
</svg>
