<?xml version="1.0" encoding="UTF-8"?>
<!DOCTYPE svg PUBLIC "-//W3C//DTD SVG 1.1//EN" "http://www.w3.org/Graphics/SVG/1.1/DTD/svg11.dtd">
<svg xmlns="http://www.w3.org/2000/svg" version="1.1" width="128px" height="128px" style="shape-rendering:geometricPrecision; text-rendering:geometricPrecision; image-rendering:optimizeQuality; fill-rule:evenodd; clip-rule:evenodd" xmlns:xlink="http://www.w3.org/1999/xlink">
<g><path style="opacity:0.998" fill="#0c0c0c" d="M 53.5,-0.5 C 60.1667,-0.5 66.8333,-0.5 73.5,-0.5C 102.529,6.52935 120.529,24.5294 127.5,53.5C 127.5,60.1667 127.5,66.8333 127.5,73.5C 123.723,93.1143 113.39,108.281 96.5,119C 89.1199,122.956 81.4532,125.789 73.5,127.5C 66.8333,127.5 60.1667,127.5 53.5,127.5C 24.4706,120.471 6.47064,102.471 -0.5,73.5C -0.5,66.8333 -0.5,60.1667 -0.5,53.5C 6.52935,24.4706 24.5294,6.47064 53.5,-0.5 Z M 57.5,12.5 C 88.635,12.1414 107.468,27.1414 114,57.5C 114.838,88.663 100.005,107.496 69.5,114C 38.337,114.838 19.5036,100.005 13,69.5C 12.357,38.3197 27.1903,19.3197 57.5,12.5 Z"/></g>
<g><path style="opacity:1" fill="#030303" d="M 56.5,38.5 C 61.1667,37.1667 65.8333,37.1667 70.5,38.5C 69.5098,44.6446 69.1765,50.9779 69.5,57.5C 76.0221,57.8235 82.3554,57.4902 88.5,56.5C 89.8333,61.1667 89.8333,65.8333 88.5,70.5C 82.3554,69.5098 76.0221,69.1765 69.5,69.5C 69.1765,76.0221 69.5098,82.3554 70.5,88.5C 65.8333,89.8333 61.1667,89.8333 56.5,88.5C 57.4902,82.3554 57.8235,76.0221 57.5,69.5C 50.9779,69.1765 44.6446,69.5098 38.5,70.5C 37.1667,65.8333 37.1667,61.1667 38.5,56.5C 44.6446,57.4902 50.9779,57.8235 57.5,57.5C 57.8235,50.9779 57.4902,44.6446 56.5,38.5 Z"/></g>
<g><path style="opacity:0.471" fill="#898989" d="M 56.5,38.5 C 57.4902,44.6446 57.8235,50.9779 57.5,57.5C 50.9779,57.8235 44.6446,57.4902 38.5,56.5C 44.5,56.5 50.5,56.5 56.5,56.5C 56.5,50.5 56.5,44.5 56.5,38.5 Z"/></g>
<g><path style="opacity:0.471" fill="#898989" d="M 70.5,38.5 C 70.5,44.5 70.5,50.5 70.5,56.5C 76.5,56.5 82.5,56.5 88.5,56.5C 82.3554,57.4902 76.0221,57.8235 69.5,57.5C 69.1765,50.9779 69.5098,44.6446 70.5,38.5 Z"/></g>
<g><path style="opacity:0.471" fill="#898989" d="M 38.5,70.5 C 44.6446,69.5098 50.9779,69.1765 57.5,69.5C 57.8235,76.0221 57.4902,82.3554 56.5,88.5C 56.5,82.5 56.5,76.5 56.5,70.5C 50.5,70.5 44.5,70.5 38.5,70.5 Z"/></g>
<g><path style="opacity:0.471" fill="#898989" d="M 88.5,70.5 C 82.5,70.5 76.5,70.5 70.5,70.5C 70.5,76.5 70.5,82.5 70.5,88.5C 69.5098,82.3554 69.1765,76.0221 69.5,69.5C 76.0221,69.1765 82.3554,69.5098 88.5,70.5 Z"/></g>
</svg>
