<?xml version="1.0" encoding="UTF-8"?>
<!DOCTYPE svg PUBLIC "-//W3C//DTD SVG 1.1//EN" "http://www.w3.org/Graphics/SVG/1.1/DTD/svg11.dtd">
<svg xmlns="http://www.w3.org/2000/svg" version="1.1" width="128px" height="128px" style="shape-rendering:geometricPrecision; text-rendering:geometricPrecision; image-rendering:optimizeQuality; fill-rule:evenodd; clip-rule:evenodd" xmlns:xlink="http://www.w3.org/1999/xlink">
<g><path style="opacity:0.938" fill="#f1f1f1" d="M 48.5,3.5 C 58.1724,3.33353 67.8391,3.5002 77.5,4C 78.9308,4.46524 80.0975,5.29857 81,6.5C 81.9932,9.30798 82.8266,12.1413 83.5,15C 93.5,15.3333 103.5,15.6667 113.5,16C 114.833,18.6667 114.833,21.3333 113.5,24C 79.835,24.5 46.1683,24.6667 12.5,24.5C 11.477,21.6075 11.477,18.7742 12.5,16C 22.8333,15.6667 33.1667,15.3333 43.5,15C 44.1189,10.6205 45.7856,6.78718 48.5,3.5 Z"/></g>
<g><path style="opacity:0.082" fill="#b3b3b3" d="M 21.5,30.5 C 21.5,30.1667 21.5,29.8333 21.5,29.5C 50.8526,28.8414 79.8526,29.5081 108.5,31.5C 108.167,31.5 107.833,31.5 107.5,31.5C 78.9072,30.5087 50.2405,30.1754 21.5,30.5 Z"/></g>
<g><path style="opacity:0.576" fill="#686868" d="M 21.5,29.5 C 21.5,29.8333 21.5,30.1667 21.5,30.5C 21.5,30.8333 21.5,31.1667 21.5,31.5C 20.8333,31.5 20.1667,31.5 19.5,31.5C 19.5,30.1667 20.1667,29.5 21.5,29.5 Z"/></g>
<g><path style="opacity:0.984" fill="#fcfcfc" d="M 21.5,30.5 C 50.2405,30.1754 78.9072,30.5087 107.5,31.5C 107.667,58.8354 107.5,86.1687 107,113.5C 106.187,115.436 105.687,117.436 105.5,119.5C 105.167,120.5 104.5,121.167 103.5,121.5C 102.279,120.535 100.946,120.702 99.5,122C 75.5,122.667 51.5,122.667 27.5,122C 26.255,121.209 24.9217,120.709 23.5,120.5C 22.5084,120.672 21.8417,120.338 21.5,119.5C 20.1896,90.1181 20.1896,60.7847 21.5,31.5C 21.5,31.1667 21.5,30.8333 21.5,30.5 Z M 46.5,49.5 C 47.8333,49.5 49.1667,49.5 50.5,49.5C 51.6515,66.7596 51.8182,84.0929 51,101.5C 49.3333,102.833 47.6667,102.833 46,101.5C 45.1818,84.0929 45.3485,66.7596 46.5,49.5 Z M 76.5,49.5 C 77.8333,49.5 79.1667,49.5 80.5,49.5C 81.6515,66.7596 81.8182,84.0929 81,101.5C 79.3005,102.406 77.4672,102.739 75.5,102.5C 75.181,84.7566 75.5143,67.0899 76.5,49.5 Z"/></g>
<g><path style="opacity:0.235" fill="#dbdbdb" d="M 19.5,31.5 C 20.1667,31.5 20.8333,31.5 21.5,31.5C 20.1896,60.7847 20.1896,90.1181 21.5,119.5C 20.7784,119.082 20.2784,118.416 20,117.5C 19.5,88.8353 19.3334,60.1686 19.5,31.5 Z"/></g>
<g><path style="opacity:0.239" fill="#d6d6d6" d="M 107.5,31.5 C 107.833,31.5 108.167,31.5 108.5,31.5C 108.667,59.502 108.5,87.502 108,115.5C 107.392,117.066 106.558,118.4 105.5,119.5C 105.687,117.436 106.187,115.436 107,113.5C 107.5,86.1687 107.667,58.8354 107.5,31.5 Z"/></g>
<g><path style="opacity:0.365" fill="#ebebeb" d="M 46.5,49.5 C 45.3485,66.7596 45.1818,84.0929 46,101.5C 47.6667,102.833 49.3333,102.833 51,101.5C 51.8182,84.0929 51.6515,66.7596 50.5,49.5C 51.209,48.596 52.209,48.2627 53.5,48.5C 53.5,66.8333 53.5,85.1667 53.5,103.5C 50.7508,103.274 48.0841,103.607 45.5,104.5C 44.1667,85.8333 44.1667,67.1667 45.5,48.5C 46.1067,48.6236 46.44,48.9569 46.5,49.5 Z M 46.5,49.5 C 47.8333,49.5 49.1667,49.5 50.5,49.5C 51.6515,66.7596 51.8182,84.0929 51,101.5C 49.3333,102.833 47.6667,102.833 46,101.5C 45.1818,84.0929 45.3485,66.7596 46.5,49.5 Z"/></g>
<g><path style="opacity:0.365" fill="#ededed" d="M 76.5,49.5 C 75.5143,67.0899 75.181,84.7566 75.5,102.5C 77.4672,102.739 79.3005,102.406 81,101.5C 81.8182,84.0929 81.6515,66.7596 80.5,49.5C 81.8317,58.3081 82.4983,67.4748 82.5,77C 82.1667,86.1667 81.8333,95.3333 81.5,104.5C 78.9159,103.607 76.2492,103.274 73.5,103.5C 73.3334,85.4969 73.5001,67.4969 74,49.5C 74.9772,48.2264 75.8106,48.2264 76.5,49.5 Z M 76.5,49.5 C 77.8333,49.5 79.1667,49.5 80.5,49.5C 81.6515,66.7596 81.8182,84.0929 81,101.5C 79.3005,102.406 77.4672,102.739 75.5,102.5C 75.181,84.7566 75.5143,67.0899 76.5,49.5 Z"/></g>
<g><path style="opacity:0.015" fill="#828282" d="M 23.5,120.5 C 24.9217,120.709 26.255,121.209 27.5,122C 51.5,122.667 75.5,122.667 99.5,122C 100.946,120.702 102.279,120.535 103.5,121.5C 102.737,122.268 101.737,122.768 100.5,123C 75.8333,123.667 51.1667,123.667 26.5,123C 25.0577,122.623 24.0577,121.79 23.5,120.5 Z"/></g>
</svg>
