<?xml version="1.0" encoding="UTF-8"?>
<!DOCTYPE svg PUBLIC "-//W3C//DTD SVG 1.1//EN" "http://www.w3.org/Graphics/SVG/1.1/DTD/svg11.dtd">
<svg xmlns="http://www.w3.org/2000/svg" version="1.1" width="128px" height="128px" style="shape-rendering:geometricPrecision; text-rendering:geometricPrecision; image-rendering:optimizeQuality; fill-rule:evenodd; clip-rule:evenodd" xmlns:xlink="http://www.w3.org/1999/xlink">
<g><path style="opacity:0.016" fill="#848484" d="M 75.5,3.5 C 67.3434,4.32942 59.0101,4.82942 50.5,5C 48.6769,5.99728 47.0103,7.16394 45.5,8.5C 45.6243,6.4184 46.6243,4.9184 48.5,4C 57.4938,3.50023 66.4938,3.33356 75.5,3.5 Z"/></g>
<g><path style="opacity:0.989" fill="#0a0a0a" d="M 75.5,3.5 C 75.8333,3.5 76.1667,3.5 76.5,3.5C 77.2066,5.1344 78.3732,6.46773 80,7.5C 80.6446,10.5589 81.478,13.5589 82.5,16.5C 83.1067,16.3764 83.44,16.0431 83.5,15.5C 92.8333,15.5 102.167,15.5 111.5,15.5C 112.779,18.0024 112.779,20.5024 111.5,23C 79.1615,23.8332 46.8282,23.6666 14.5,22.5C 13.6258,20.2534 13.2924,17.9201 13.5,15.5C 23.5056,15.6665 33.5056,15.4998 43.5,15C 44.2301,12.846 44.8968,10.6794 45.5,8.5C 47.0103,7.16394 48.6769,5.99728 50.5,5C 59.0101,4.82942 67.3434,4.32942 75.5,3.5 Z"/></g>
<g><path style="opacity:0.416" fill="#5e5e5e" d="M 76.5,3.5 C 81.3816,5.91985 83.7149,9.91985 83.5,15.5C 83.44,16.0431 83.1067,16.3764 82.5,16.5C 81.478,13.5589 80.6446,10.5589 80,7.5C 78.3732,6.46773 77.2066,5.1344 76.5,3.5 Z"/></g>
<g><path style="opacity:0.043" fill="#5e5e5e" d="M 13.5,15.5 C 13.2924,17.9201 13.6258,20.2534 14.5,22.5C 46.8282,23.6666 79.1615,23.8332 111.5,23C 112.779,20.5024 112.779,18.0024 111.5,15.5C 112.496,15.4142 113.329,15.7476 114,16.5C 114.769,19.0991 114.602,21.5991 113.5,24C 79.835,24.5 46.1683,24.6667 12.5,24.5C 12.2767,22.6583 11.9434,20.825 11.5,19C 11.3866,17.3009 12.0532,16.1342 13.5,15.5 Z"/></g>
<g><path style="opacity:0.995" fill="#010101" d="M 106.5,31.5 C 106.667,59.502 106.5,87.502 106,115.5C 105.487,116.527 104.987,117.527 104.5,118.5C 103.251,120.136 101.584,121.303 99.5,122C 75.5,122.667 51.5,122.667 27.5,122C 26.255,121.209 24.9217,120.709 23.5,120.5C 22.8333,119.167 22.1667,117.833 21.5,116.5C 20.5166,88.2108 20.1833,59.8775 20.5,31.5C 49.1667,31.5 77.8333,31.5 106.5,31.5 Z M 45.5,101.5 C 45.5,84.5 45.5,67.5 45.5,50.5C 47.3388,49.2475 49.1722,49.2475 51,50.5C 51.6667,67.5 51.6667,84.5 51,101.5C 49.1722,102.752 47.3388,102.752 45.5,101.5 Z M 81.5,50.5 C 81.5,67.5 81.5,84.5 81.5,101.5C 79.6208,102.341 77.6208,102.675 75.5,102.5C 75.3334,85.1635 75.5001,67.8301 76,50.5C 77.8278,49.2475 79.6612,49.2475 81.5,50.5 Z"/></g>
<g><path style="opacity:0.235" fill="#1c1c1c" d="M 19.5,30.5 C 48.6715,30.1686 77.6715,30.502 106.5,31.5C 77.8333,31.5 49.1667,31.5 20.5,31.5C 20.1833,59.8775 20.5166,88.2108 21.5,116.5C 20.8333,116.167 20.1667,115.833 19.5,115.5C 19.5,87.1667 19.5,58.8333 19.5,30.5 Z"/></g>
<g><path style="opacity:0.239" fill="#4e4e4e" d="M 19.5,30.5 C 48.9953,29.5019 78.662,29.1686 108.5,29.5C 108.667,58.1686 108.5,86.8353 108,115.5C 107.487,116.527 106.987,117.527 106.5,118.5C 105.833,118.5 105.167,118.5 104.5,118.5C 104.987,117.527 105.487,116.527 106,115.5C 106.5,87.502 106.667,59.502 106.5,31.5C 77.6715,30.502 48.6715,30.1686 19.5,30.5 Z"/></g>
<g><path style="opacity:0.278" fill="#4c4c4c" d="M 81.5,50.5 C 79.6612,49.2475 77.8278,49.2475 76,50.5C 75.5001,67.8301 75.3334,85.1635 75.5,102.5C 77.6208,102.675 79.6208,102.341 81.5,101.5C 79.3647,103.369 76.6981,104.036 73.5,103.5C 73.5,85.1667 73.5,66.8333 73.5,48.5C 76.5719,48.1826 79.5719,48.5159 82.5,49.5C 82.3764,50.1067 82.0431,50.44 81.5,50.5 Z"/></g>
<g><path style="opacity:0.278" fill="#565656" d="M 45.5,101.5 C 47.3388,102.752 49.1722,102.752 51,101.5C 51.6667,84.5 51.6667,67.5 51,50.5C 49.1722,49.2475 47.3388,49.2475 45.5,50.5C 44.9569,50.44 44.6236,50.1067 44.5,49.5C 47.3719,48.2175 50.2053,48.2175 53,49.5C 53.4999,67.4969 53.6666,85.4969 53.5,103.5C 50.3019,104.036 47.6353,103.369 45.5,101.5 Z"/></g>
<g><path style="opacity:0.115" fill="#9b9b9b" d="M 19.5,115.5 C 20.1667,115.833 20.8333,116.167 21.5,116.5C 22.1667,117.833 22.8333,119.167 23.5,120.5C 21.0029,119.871 19.6696,118.204 19.5,115.5 Z"/></g>
<g><path style="opacity:0.019" fill="#818181" d="M 104.5,118.5 C 105.167,118.5 105.833,118.5 106.5,118.5C 105.229,120.934 103.229,122.434 100.5,123C 75.8333,123.667 51.1667,123.667 26.5,123C 25.0577,122.623 24.0577,121.79 23.5,120.5C 24.9217,120.709 26.255,121.209 27.5,122C 51.5,122.667 75.5,122.667 99.5,122C 101.584,121.303 103.251,120.136 104.5,118.5 Z"/></g>
</svg>
