<?xml version="1.0" encoding="UTF-8"?>
<!DOCTYPE svg PUBLIC "-//W3C//DTD SVG 1.1//EN" "http://www.w3.org/Graphics/SVG/1.1/DTD/svg11.dtd">
<svg xmlns="http://www.w3.org/2000/svg" version="1.1" width="128px" height="128px" style="shape-rendering:geometricPrecision; text-rendering:geometricPrecision; image-rendering:optimizeQuality; fill-rule:evenodd; clip-rule:evenodd" xmlns:xlink="http://www.w3.org/1999/xlink">
<g><path style="opacity:0.027" fill="#a2a2a2" d="M 104.5,20.5 C 106.833,20.8333 108.167,22.1667 108.5,24.5C 107.5,23.8333 106.5,23.1667 105.5,22.5C 105.167,21.8333 104.833,21.1667 104.5,20.5 Z"/></g>
<g><path style="opacity:0.823" fill="#2b2b2b" d="M 23.5,20.5 C 50.5,20.5 77.5,20.5 104.5,20.5C 104.833,21.1667 105.167,21.8333 105.5,22.5C 77.8333,22.5 50.1667,22.5 22.5,22.5C 22.8333,21.8333 23.1667,21.1667 23.5,20.5 Z"/></g>
<g><path style="opacity:0.314" fill="#959595" d="M 23.5,20.5 C 23.1667,21.1667 22.8333,21.8333 22.5,22.5C 21.5,23.1667 20.5,23.8333 19.5,24.5C 19.8333,22.1667 21.1667,20.8333 23.5,20.5 Z"/></g>
<g><path style="opacity:0.999" fill="#020202" d="M 22.5,22.5 C 50.1667,22.5 77.8333,22.5 105.5,22.5C 106.5,23.1667 107.5,23.8333 108.5,24.5C 108.5,25.5 108.5,26.5 108.5,27.5C 107.761,27.369 107.094,27.5357 106.5,28C 96.6317,38.0355 86.6317,47.8688 76.5,57.5C 75.6685,73.6615 75.1685,89.9949 75,106.5C 73.3005,107.406 71.4672,107.739 69.5,107.5C 68.8333,107.167 68.1667,106.833 67.5,106.5C 66.8333,105.167 65.8333,104.167 64.5,103.5C 63.8333,102.167 62.8333,101.167 61.5,100.5C 60.8333,99.1667 59.8333,98.1667 58.5,97.5C 58.1667,96.8333 57.8333,96.1667 57.5,95.5C 57.0269,94.0937 56.0269,93.427 54.5,93.5C 54.1667,92.8333 53.8333,92.1667 53.5,91.5C 52.8539,80.4015 52.1873,69.4015 51.5,58.5C 41.1667,47.5 30.5,36.8333 19.5,26.5C 19.5,25.8333 19.5,25.1667 19.5,24.5C 20.5,23.8333 21.5,23.1667 22.5,22.5 Z"/></g>
<g><path style="opacity:0.051" fill="#a6a6a6" d="M 108.5,27.5 C 98.1667,38.5 87.5,49.1667 76.5,59.5C 76.5,58.8333 76.5,58.1667 76.5,57.5C 86.6317,47.8688 96.6317,38.0355 106.5,28C 107.094,27.5357 107.761,27.369 108.5,27.5 Z"/></g>
<g><path style="opacity:0.173" fill="#ababab" d="M 19.5,26.5 C 30.5,36.8333 41.1667,47.5 51.5,58.5C 51.5,58.8333 51.5,59.1667 51.5,59.5C 40.1128,49.1141 29.4461,38.1141 19.5,26.5 Z"/></g>
<g><path style="opacity:0.369" fill="#424242" d="M 51.5,58.5 C 52.1873,69.4015 52.8539,80.4015 53.5,91.5C 53.1667,91.5 52.8333,91.5 52.5,91.5C 51.5056,81.0131 51.1722,70.3464 51.5,59.5C 51.5,59.1667 51.5,58.8333 51.5,58.5 Z"/></g>
<g><path style="opacity:0.004" fill="#dedede" d="M 52.5,91.5 C 52.8333,91.5 53.1667,91.5 53.5,91.5C 53.8333,92.1667 54.1667,92.8333 54.5,93.5C 53.1667,93.5 52.5,92.8333 52.5,91.5 Z"/></g>
<g><path style="opacity:0.525" fill="#848484" d="M 54.5,93.5 C 56.0269,93.427 57.0269,94.0937 57.5,95.5C 56.8333,95.5 56.1667,95.5 55.5,95.5C 55.1667,94.8333 54.8333,94.1667 54.5,93.5 Z"/></g>
<g><path style="opacity:0.125" fill="#d6d6d6" d="M 55.5,95.5 C 56.1667,95.5 56.8333,95.5 57.5,95.5C 57.8333,96.1667 58.1667,96.8333 58.5,97.5C 56.9731,97.573 55.9731,96.9063 55.5,95.5 Z"/></g>
<g><path style="opacity:0.004" fill="#dedede" d="M 58.5,97.5 C 59.8333,98.1667 60.8333,99.1667 61.5,100.5C 59.5,100.5 58.5,99.5 58.5,97.5 Z"/></g>
<g><path style="opacity:0.004" fill="#dedede" d="M 61.5,100.5 C 62.8333,101.167 63.8333,102.167 64.5,103.5C 62.5,103.5 61.5,102.5 61.5,100.5 Z"/></g>
<g><path style="opacity:0.004" fill="#e0e0e0" d="M 64.5,103.5 C 65.8333,104.167 66.8333,105.167 67.5,106.5C 65.5,106.5 64.5,105.5 64.5,103.5 Z"/></g>
<g><path style="opacity:0.004" fill="#e4e4e4" d="M 67.5,106.5 C 68.1667,106.833 68.8333,107.167 69.5,107.5C 69.5,108.167 69.5,108.833 69.5,109.5C 68.0937,109.027 67.427,108.027 67.5,106.5 Z"/></g>
<g><path style="opacity:0.082" fill="#5b5b5b" d="M 76.5,57.5 C 76.5,58.1667 76.5,58.8333 76.5,59.5C 76.6666,75.5035 76.4999,91.5035 76,107.5C 74.2458,109.25 72.0792,109.917 69.5,109.5C 69.5,108.833 69.5,108.167 69.5,107.5C 71.4672,107.739 73.3005,107.406 75,106.5C 75.1685,89.9949 75.6685,73.6615 76.5,57.5 Z"/></g>
</svg>
