<?xml version="1.0" encoding="UTF-8"?>
<!DOCTYPE svg PUBLIC "-//W3C//DTD SVG 1.1//EN" "http://www.w3.org/Graphics/SVG/1.1/DTD/svg11.dtd">
<svg xmlns="http://www.w3.org/2000/svg" version="1.1" width="128px" height="128px" style="shape-rendering:geometricPrecision; text-rendering:geometricPrecision; image-rendering:optimizeQuality; fill-rule:evenodd; clip-rule:evenodd" xmlns:xlink="http://www.w3.org/1999/xlink">
<g><path style="opacity:0.164" fill="#cdcdcd" d="M 106.5,21.5 C 77.7893,21.1831 49.1226,21.5164 20.5,22.5C 20.6107,21.8826 20.944,21.3826 21.5,21C 50.003,20.1696 78.3363,20.3363 106.5,21.5 Z"/></g>
<g><path style="opacity:0.978" fill="#fcfcfc" d="M 106.5,21.5 C 107.219,23.7638 107.552,26.0971 107.5,28.5C 97.5355,38.9651 87.3688,49.2984 77,59.5C 76.6667,75.5 76.3333,91.5 76,107.5C 73.8788,109.457 71.3788,109.957 68.5,109C 63.3209,103.321 57.9875,97.8213 52.5,92.5C 51.6885,81.5463 51.1885,70.5463 51,59.5C 40.6667,49.1667 30.3333,38.8333 20,28.5C 19.2109,26.2884 19.3775,24.2884 20.5,22.5C 49.1226,21.5164 77.7893,21.1831 106.5,21.5 Z"/></g>
<g><path style="opacity:0.123" fill="#c4c4c4" d="M 106.5,21.5 C 107.993,22.3121 108.66,23.6455 108.5,25.5C 108.48,26.7261 108.147,27.7261 107.5,28.5C 107.552,26.0971 107.219,23.7638 106.5,21.5 Z"/></g>
</svg>
