<?xml version="1.0" encoding="UTF-8"?>
<!DOCTYPE svg PUBLIC "-//W3C//DTD SVG 1.1//EN" "http://www.w3.org/Graphics/SVG/1.1/DTD/svg11.dtd">
<svg xmlns="http://www.w3.org/2000/svg" version="1.1" width="80px" height="80px" style="shape-rendering:geometricPrecision; text-rendering:geometricPrecision; image-rendering:optimizeQuality; fill-rule:evenodd; clip-rule:evenodd" xmlns:xlink="http://www.w3.org/1999/xlink">
<g><path style="opacity:0.302" fill="#564940" d="M 55.5,7.5 C 55.2648,8.09674 54.7648,8.43007 54,8.5C 44.0925,4.37017 34.2592,4.53683 24.5,9C 22.9069,9.94873 21.5736,11.1154 20.5,12.5C 18.6064,13.0476 16.9397,14.0476 15.5,15.5C 14.913,14.7666 14.913,13.7666 15.5,12.5C 19.8544,8.97547 24.8544,6.47547 30.5,5C 37.1667,4.33333 43.8333,4.33333 50.5,5C 52.4913,5.37362 54.158,6.20695 55.5,7.5 Z"/></g>
<g><path style="opacity:1" fill="#25140c" d="M 72.5,47.5 C 71.3263,48.5137 70.6596,49.847 70.5,51.5C 69.8333,52.8333 69.1667,54.1667 68.5,55.5C 65.5448,56.1587 62.5448,56.4921 59.5,56.5C 58.391,56.4431 57.391,56.1098 56.5,55.5C 55.3398,53.7973 56.0065,53.1307 58.5,53.5C 58.5,52.1667 58.5,50.8333 58.5,49.5C 57.1667,49.5 55.8333,49.5 54.5,49.5C 54.5,48.5 54.5,47.5 54.5,46.5C 55.791,46.7373 56.791,46.404 57.5,45.5C 59.539,44.089 60.539,42.089 60.5,39.5C 57.6118,39.7804 56.1118,38.4471 56,35.5C 54.6218,33.7866 52.9552,32.4533 51,31.5C 50.5172,30.552 50.3505,29.552 50.5,28.5C 48.0738,26.7815 45.4071,26.2815 42.5,27C 45.4685,29.1777 45.1351,30.3444 41.5,30.5C 41.1667,30.5 40.8333,30.5 40.5,30.5C 40.7373,29.209 40.404,28.209 39.5,27.5C 39.0269,26.0937 38.0269,25.427 36.5,25.5C 31.65,24.2462 26.65,24.2462 21.5,25.5C 19.9271,25.2483 18.5938,24.5817 17.5,23.5C 16.5169,22.1497 15.1836,21.1497 13.5,20.5C 15.8558,17.8136 18.1891,15.147 20.5,12.5C 37.932,3.98863 53.432,6.65529 67,20.5C 68.9203,23.3388 70.5869,26.3388 72,29.5C 72.4995,35.4908 72.6662,41.4908 72.5,47.5 Z"/></g>
<g><path style="opacity:0.698" fill="#56473e" d="M 59.5,9.5 C 66.5506,13.2075 71.5506,18.8741 74.5,26.5C 74.3764,27.1067 74.0431,27.44 73.5,27.5C 69.4231,20.5866 64.0897,14.7532 57.5,10C 58.0944,9.53566 58.7611,9.36899 59.5,9.5 Z"/></g>
<g><path style="opacity:1" fill="#644e43" d="M 44.5,15.5 C 48.7481,14.8996 49.9148,16.233 48,19.5C 47.7508,18.376 47.2508,17.376 46.5,16.5C 45.0495,17.6554 44.0495,19.1554 43.5,21C 40.2627,21.2223 37.2627,21.0556 34.5,20.5C 35.3279,19.5853 36.3279,18.9186 37.5,18.5C 39.4086,19.3482 41.4086,19.6816 43.5,19.5C 43.4326,18.0413 43.7659,16.7079 44.5,15.5 Z"/></g>
<g><path style="opacity:1" fill="#644c40" d="M 17.5,23.5 C 18.5938,24.5817 19.9271,25.2483 21.5,25.5C 26.65,24.2462 31.65,24.2462 36.5,25.5C 34.2646,25.2053 32.2646,25.5386 30.5,26.5C 26.6704,26.8966 22.6704,27.0632 18.5,27C 17.6634,25.9887 17.33,24.8221 17.5,23.5 Z"/></g>
<g><path style="opacity:0.89" fill="#534840" d="M 11.5,16.5 C 12.3764,16.3691 13.0431,16.7025 13.5,17.5C 10.5572,21.73 7.89054,26.0634 5.5,30.5C 5.38242,24.8318 7.38242,20.1651 11.5,16.5 Z"/></g>
<g><path style="opacity:1" fill="#af8c70" d="M 30.5,26.5 C 32.2646,25.5386 34.2646,25.2053 36.5,25.5C 38.0269,25.427 39.0269,26.0937 39.5,27.5C 38.8478,28.7251 37.6811,29.3917 36,29.5C 34.2134,29.2414 32.7134,28.5747 31.5,27.5C 31.5,26.8333 31.1667,26.5 30.5,26.5 Z"/></g>
<g><path style="opacity:1" fill="#5f4a3f" d="M 50.5,28.5 C 49.573,26.7175 48.7397,25.0508 48,23.5C 50.5726,24.6536 52.7392,26.3202 54.5,28.5C 57.2808,25.8646 59.9474,25.8646 62.5,28.5C 59.7447,32.6107 58.7447,32.444 59.5,28C 57.7166,27.7677 56.0499,28.2677 54.5,29.5C 53.1508,29.1543 51.8175,28.821 50.5,28.5 Z"/></g>
<g><path style="opacity:1" fill="#7c5c4a" d="M 31.5,27.5 C 32.7134,28.5747 34.2134,29.2414 36,29.5C 37.6811,29.3917 38.8478,28.7251 39.5,27.5C 40.404,28.209 40.7373,29.209 40.5,30.5C 37.5176,30.9629 34.5176,31.2962 31.5,31.5C 31.5,30.1667 31.5,28.8333 31.5,27.5 Z"/></g>
<g><path style="opacity:0.29" fill="#8e7767" d="M 55.5,7.5 C 57.153,7.6596 58.4863,8.32627 59.5,9.5C 58.7611,9.36899 58.0944,9.53566 57.5,10C 64.0897,14.7532 69.4231,20.5866 73.5,27.5C 75.1505,32.3241 75.8172,37.3241 75.5,42.5C 74.2237,44.5625 73.3903,46.8958 73,49.5C 72.5357,48.9056 72.369,48.2389 72.5,47.5C 72.6662,41.4908 72.4995,35.4908 72,29.5C 70.5869,26.3388 68.9203,23.3388 67,20.5C 53.432,6.65529 37.932,3.98863 20.5,12.5C 21.5736,11.1154 22.9069,9.94873 24.5,9C 34.2592,4.53683 44.0925,4.37017 54,8.5C 54.7648,8.43007 55.2648,8.09674 55.5,7.5 Z"/></g>
<g><path style="opacity:1" fill="#8e7560" d="M 28.5,33.5 C 28.5,33.8333 28.5,34.1667 28.5,34.5C 27.209,34.2627 26.209,34.596 25.5,35.5C 23.7041,34.2073 22.0375,32.7073 20.5,31C 23.2184,31.5237 25.8851,32.357 28.5,33.5 Z"/></g>
<g><path style="opacity:1" fill="#c0986e" d="M 40.5,30.5 C 40.8333,30.5 41.1667,30.5 41.5,30.5C 44.7994,32.4835 48.4661,33.4835 52.5,33.5C 52.6646,35.8268 53.3313,37.9935 54.5,40C 50.1364,41.0825 45.8031,41.2491 41.5,40.5C 38.7758,35.1085 34.4425,33.1085 28.5,34.5C 28.5,34.1667 28.5,33.8333 28.5,33.5C 29.5,32.8333 30.5,32.1667 31.5,31.5C 34.5176,31.2962 37.5176,30.9629 40.5,30.5 Z"/></g>
<g><path style="opacity:1" fill="#b28f6e" d="M 50.5,28.5 C 50.3505,29.552 50.5172,30.552 51,31.5C 52.9552,32.4533 54.6218,33.7866 56,35.5C 56.1118,38.4471 57.6118,39.7804 60.5,39.5C 60.539,42.089 59.539,44.089 57.5,45.5C 54.5733,43.3822 51.24,42.3822 47.5,42.5C 45.5853,42.2155 43.9187,42.5489 42.5,43.5C 41.5178,44.1408 40.5178,44.8075 39.5,45.5C 38.6858,43.2338 38.1858,40.9005 38,38.5C 36.8904,36.9632 35.3904,36.2965 33.5,36.5C 32.3991,35.4017 31.0657,35.235 29.5,36C 30.2524,36.6708 30.5858,37.5041 30.5,38.5C 32.1859,41.5367 31.1859,42.87 27.5,42.5C 27.7678,40.901 27.4345,39.5676 26.5,38.5C 26.4431,37.391 26.1098,36.391 25.5,35.5C 26.209,34.596 27.209,34.2627 28.5,34.5C 34.4425,33.1085 38.7758,35.1085 41.5,40.5C 45.8031,41.2491 50.1364,41.0825 54.5,40C 53.3313,37.9935 52.6646,35.8268 52.5,33.5C 48.4661,33.4835 44.7994,32.4835 41.5,30.5C 45.1351,30.3444 45.4685,29.1777 42.5,27C 45.4071,26.2815 48.0738,26.7815 50.5,28.5 Z"/></g>
<g><path style="opacity:1" fill="#2e140d" d="M 33.5,36.5 C 33.7678,38.099 33.4345,39.4324 32.5,40.5C 32.1667,39.5 31.5,38.8333 30.5,38.5C 30.5858,37.5041 30.2524,36.6708 29.5,36C 31.0657,35.235 32.3991,35.4017 33.5,36.5 Z"/></g>
<g><path style="opacity:1" fill="#93755d" d="M 26.5,38.5 C 27.4345,39.5676 27.7678,40.901 27.5,42.5C 31.1859,42.87 32.1859,41.5367 30.5,38.5C 31.5,38.8333 32.1667,39.5 32.5,40.5C 34.2419,43.1445 34.9086,46.1445 34.5,49.5C 34.1667,49.5 33.8333,49.5 33.5,49.5C 34.1567,45.0288 32.4901,43.3621 28.5,44.5C 29.325,45.3857 30.325,45.719 31.5,45.5C 31.5,46.8333 31.5,48.1667 31.5,49.5C 30.8423,48.6016 30.1757,47.6016 29.5,46.5C 28.7836,47.311 27.9503,47.9777 27,48.5C 25.0025,47.3399 23.1692,47.3399 21.5,48.5C 20.3473,47.6868 20.3473,46.6868 21.5,45.5C 23.0453,44.5481 24.712,44.2148 26.5,44.5C 26.5,42.5 26.5,40.5 26.5,38.5 Z"/></g>
<g><path style="opacity:1" fill="#381f14" d="M 33.5,49.5 C 32.8333,49.5 32.1667,49.5 31.5,49.5C 31.5,48.1667 31.5,46.8333 31.5,45.5C 30.325,45.719 29.325,45.3857 28.5,44.5C 32.4901,43.3621 34.1567,45.0288 33.5,49.5 Z"/></g>
<g><path style="opacity:0.753" fill="#816b60" d="M 15.5,12.5 C 14.913,13.7666 14.913,14.7666 15.5,15.5C 16.9397,14.0476 18.6064,13.0476 20.5,12.5C 18.1891,15.147 15.8558,17.8136 13.5,20.5C 15.1836,21.1497 16.5169,22.1497 17.5,23.5C 16.325,23.281 15.325,23.6143 14.5,24.5C 15.5063,25.3957 15.5063,26.0623 14.5,26.5C 13.4164,25.3349 12.5831,24.0016 12,22.5C 4.17995,35.6629 5.01328,48.3296 14.5,60.5C 14.1667,60.5 13.8333,60.5 13.5,60.5C 10.8141,57.097 8.1474,53.7637 5.5,50.5C 4.25898,43.8127 4.25898,37.146 5.5,30.5C 7.89054,26.0634 10.5572,21.73 13.5,17.5C 13.0431,16.7025 12.3764,16.3691 11.5,16.5C 12.5,14.8333 13.8333,13.5 15.5,12.5 Z"/></g>
<g><path style="opacity:1" fill="#745745" d="M 42.5,43.5 C 43.9187,42.5489 45.5853,42.2155 47.5,42.5C 48.8021,44.0276 50.4687,45.0276 52.5,45.5C 47.1708,47.0764 42.1708,48.4097 37.5,49.5C 40.1673,47.3959 43.1673,45.7292 46.5,44.5C 45.3112,43.5713 43.9778,43.238 42.5,43.5 Z"/></g>
<g><path style="opacity:1" fill="#402720" d="M 33.5,36.5 C 35.3904,36.2965 36.8904,36.9632 38,38.5C 38.1858,40.9005 38.6858,43.2338 39.5,45.5C 40.5178,44.8075 41.5178,44.1408 42.5,43.5C 43.9778,43.238 45.3112,43.5713 46.5,44.5C 43.1673,45.7292 40.1673,47.3959 37.5,49.5C 36.5,49.5 35.5,49.5 34.5,49.5C 34.9086,46.1445 34.2419,43.1445 32.5,40.5C 33.4345,39.4324 33.7678,38.099 33.5,36.5 Z"/></g>
<g><path style="opacity:1" fill="#b5906c" d="M 52.5,45.5 C 53.4731,47.0683 53.6397,48.735 53,50.5C 51.78,48.1428 50.9467,48.4761 50.5,51.5C 48.9582,52.3007 47.2915,52.634 45.5,52.5C 42.406,52.8049 39.7393,53.9715 37.5,56C 38.4158,56.2784 39.0825,56.7784 39.5,57.5C 34.0779,60.1458 28.7445,60.1458 23.5,57.5C 23.1667,56.8333 22.8333,56.1667 22.5,55.5C 26.8967,55.5754 31.23,55.0754 35.5,54C 33.1728,52.1849 30.6728,52.0182 28,53.5C 26.6974,53.0217 25.5307,52.355 24.5,51.5C 23.9002,50.1001 22.9002,49.1001 21.5,48.5C 23.1692,47.3399 25.0025,47.3399 27,48.5C 27.9503,47.9777 28.7836,47.311 29.5,46.5C 30.1757,47.6016 30.8423,48.6016 31.5,49.5C 32.1667,49.5 32.8333,49.5 33.5,49.5C 33.8333,49.5 34.1667,49.5 34.5,49.5C 35.5,49.5 36.5,49.5 37.5,49.5C 42.1708,48.4097 47.1708,47.0764 52.5,45.5 Z"/></g>
<g><path style="opacity:1" fill="#50382e" d="M 47.5,42.5 C 51.24,42.3822 54.5733,43.3822 57.5,45.5C 56.791,46.404 55.791,46.7373 54.5,46.5C 54.5,47.5 54.5,48.5 54.5,49.5C 55.8333,49.5 57.1667,49.5 58.5,49.5C 58.5,50.8333 58.5,52.1667 58.5,53.5C 56.0065,53.1307 55.3398,53.7973 56.5,55.5C 55.8333,55.5 55.1667,55.5 54.5,55.5C 54.5,54.1667 54.5,52.8333 54.5,51.5C 53.1667,51.5 51.8333,51.5 50.5,51.5C 50.9467,48.4761 51.78,48.1428 53,50.5C 53.6397,48.735 53.4731,47.0683 52.5,45.5C 50.4687,45.0276 48.8021,44.0276 47.5,42.5 Z"/></g>
<g><path style="opacity:1" fill="#26140d" d="M 17.5,23.5 C 17.33,24.8221 17.6634,25.9887 18.5,27C 22.6704,27.0632 26.6704,26.8966 30.5,26.5C 31.1667,26.5 31.5,26.8333 31.5,27.5C 31.5,28.8333 31.5,30.1667 31.5,31.5C 30.5,32.1667 29.5,32.8333 28.5,33.5C 25.8851,32.357 23.2184,31.5237 20.5,31C 22.0375,32.7073 23.7041,34.2073 25.5,35.5C 26.1098,36.391 26.4431,37.391 26.5,38.5C 26.5,40.5 26.5,42.5 26.5,44.5C 24.712,44.2148 23.0453,44.5481 21.5,45.5C 20.3473,46.6868 20.3473,47.6868 21.5,48.5C 22.9002,49.1001 23.9002,50.1001 24.5,51.5C 24.2671,53.0618 23.6005,54.3951 22.5,55.5C 20.5714,55.2308 18.9047,55.7308 17.5,57C 19.4727,57.4955 21.4727,57.6621 23.5,57.5C 28.7445,60.1458 34.0779,60.1458 39.5,57.5C 41.035,58.3543 42.3684,58.3543 43.5,57.5C 44.1667,57.5 44.8333,57.5 45.5,57.5C 47.8967,58.368 50.3967,59.0347 53,59.5C 54.7067,59.4915 56.2067,59.1582 57.5,58.5C 59.8333,58.5 62.1667,58.5 64.5,58.5C 65.1667,58.5 65.5,58.8333 65.5,59.5C 54.6165,70.8477 41.6165,74.0144 26.5,69C 22.2952,66.4028 18.2952,63.5695 14.5,60.5C 5.01328,48.3296 4.17995,35.6629 12,22.5C 12.5831,24.0016 13.4164,25.3349 14.5,26.5C 15.5063,26.0623 15.5063,25.3957 14.5,24.5C 15.325,23.6143 16.325,23.281 17.5,23.5 Z"/></g>
<g><path style="opacity:0.067" fill="#b0a6a5" d="M 58.5,70.5 C 57.7095,71.4013 56.7095,72.0679 55.5,72.5C 55.8212,70.9519 56.8212,70.2852 58.5,70.5 Z"/></g>
<g><path style="opacity:0.824" fill="#5f4f47" d="M 75.5,42.5 C 75.5267,55.087 69.86,64.4204 58.5,70.5C 56.8212,70.2852 55.8212,70.9519 55.5,72.5C 35.2535,79.0721 19.0869,73.7388 7,56.5C 5.87201,54.6547 5.37201,52.6547 5.5,50.5C 8.1474,53.7637 10.8141,57.097 13.5,60.5C 22.685,71.3946 34.3517,75.228 48.5,72C 59.7106,68.9582 67.7106,62.1249 72.5,51.5C 72.0302,50.537 71.3635,50.537 70.5,51.5C 70.6596,49.847 71.3263,48.5137 72.5,47.5C 72.369,48.2389 72.5357,48.9056 73,49.5C 73.3903,46.8958 74.2237,44.5625 75.5,42.5 Z"/></g>
<g><path style="opacity:1" fill="#977c69" d="M 13.5,60.5 C 13.8333,60.5 14.1667,60.5 14.5,60.5C 18.2952,63.5695 22.2952,66.4028 26.5,69C 41.6165,74.0144 54.6165,70.8477 65.5,59.5C 66.9744,58.5637 67.9744,57.2303 68.5,55.5C 69.1667,54.1667 69.8333,52.8333 70.5,51.5C 71.3635,50.537 72.0302,50.537 72.5,51.5C 67.7106,62.1249 59.7106,68.9582 48.5,72C 34.3517,75.228 22.685,71.3946 13.5,60.5 Z"/></g>
<g><path style="opacity:1" fill="#7e614c" d="M 45.5,57.5 C 45.9169,56.8761 46.5836,56.5427 47.5,56.5C 50.6418,58.1187 53.9752,58.7854 57.5,58.5C 56.2067,59.1582 54.7067,59.4915 53,59.5C 50.3967,59.0347 47.8967,58.368 45.5,57.5 Z"/></g>
<g><path style="opacity:1" fill="#634a3f" d="M 68.5,55.5 C 67.9744,57.2303 66.9744,58.5637 65.5,59.5C 65.5,58.8333 65.1667,58.5 64.5,58.5C 62.8333,57.8333 61.1667,57.1667 59.5,56.5C 62.5448,56.4921 65.5448,56.1587 68.5,55.5 Z"/></g>
<g><path style="opacity:1" fill="#a9886b" d="M 45.5,54.5 C 48.6085,54.2641 51.6085,54.5975 54.5,55.5C 55.1667,55.5 55.8333,55.5 56.5,55.5C 57.391,56.1098 58.391,56.4431 59.5,56.5C 61.1667,57.1667 62.8333,57.8333 64.5,58.5C 62.1667,58.5 59.8333,58.5 57.5,58.5C 53.9752,58.7854 50.6418,58.1187 47.5,56.5C 46.5836,56.5427 45.9169,56.8761 45.5,57.5C 44.8333,57.5 44.1667,57.5 43.5,57.5C 39.8694,55.3788 40.5361,54.3788 45.5,54.5 Z"/></g>
<g><path style="opacity:1" fill="#6f5745" d="M 22.5,55.5 C 22.8333,56.1667 23.1667,56.8333 23.5,57.5C 21.4727,57.6621 19.4727,57.4955 17.5,57C 18.9047,55.7308 20.5714,55.2308 22.5,55.5 Z"/></g>
<g><path style="opacity:1" fill="#7e5f47" d="M 45.5,52.5 C 45.5,53.1667 45.5,53.8333 45.5,54.5C 40.5361,54.3788 39.8694,55.3788 43.5,57.5C 42.3684,58.3543 41.035,58.3543 39.5,57.5C 39.0825,56.7784 38.4158,56.2784 37.5,56C 39.7393,53.9715 42.406,52.8049 45.5,52.5 Z"/></g>
<g><path style="opacity:1" fill="#4f3325" d="M 24.5,51.5 C 25.5307,52.355 26.6974,53.0217 28,53.5C 30.6728,52.0182 33.1728,52.1849 35.5,54C 31.23,55.0754 26.8967,55.5754 22.5,55.5C 23.6005,54.3951 24.2671,53.0618 24.5,51.5 Z"/></g>
<g><path style="opacity:1" fill="#2d170e" d="M 50.5,51.5 C 51.8333,51.5 53.1667,51.5 54.5,51.5C 54.5,52.8333 54.5,54.1667 54.5,55.5C 51.6085,54.5975 48.6085,54.2641 45.5,54.5C 45.5,53.8333 45.5,53.1667 45.5,52.5C 47.2915,52.634 48.9582,52.3007 50.5,51.5 Z"/></g>
</svg>
