<?xml version="1.0" encoding="UTF-8"?>
<!DOCTYPE svg PUBLIC "-//W3C//DTD SVG 1.1//EN" "http://www.w3.org/Graphics/SVG/1.1/DTD/svg11.dtd">
<svg xmlns="http://www.w3.org/2000/svg" version="1.1" width="50px" height="70px" style="shape-rendering:geometricPrecision; text-rendering:geometricPrecision; image-rendering:optimizeQuality; fill-rule:evenodd; clip-rule:evenodd" xmlns:xlink="http://www.w3.org/1999/xlink">
<g><path style="opacity:0.998" fill="#bc4435" d="M 45.5,31.5 C 45.5,28.5 45.5,25.5 45.5,22.5C 31.5,22.5 17.5,22.5 3.5,22.5C 1.58311,13.7344 5.24978,9.40102 14.5,9.5C 14.3573,7.73759 14.6906,6.07092 15.5,4.5C 20.3619,2.68048 25.3619,2.18048 30.5,3C 31.1667,4 31.8333,5 32.5,6C 36.2498,6.25989 39.9164,6.92655 43.5,8C 45.6246,9.73729 46.458,11.904 46,14.5C 32.9083,16.8474 19.7416,19.0141 6.5,21C 19.8292,21.4999 33.1625,21.6666 46.5,21.5C 46.8128,25.0419 46.4794,28.3752 45.5,31.5 Z"/></g>
<g><path style="opacity:0.997" fill="#bf3b2d" d="M 3.5,22.5 C 17.5,22.5 31.5,22.5 45.5,22.5C 45.5,25.5 45.5,28.5 45.5,31.5C 45.6494,42.1968 45.1494,52.8635 44,63.5C 43.1667,64.3333 42.3333,65.1667 41.5,66C 30.5,66.6667 19.5,66.6667 8.5,66C 6.39297,64.7365 5.39297,62.9032 5.5,60.5C 5.61071,59.8826 5.94404,59.3826 6.5,59C 5.858,54.3993 5.19133,49.8993 4.5,45.5C 4.5,43.5 4.5,41.5 4.5,39.5C 4.61071,38.8826 4.94404,38.3826 5.5,38C 4.858,33.3993 4.19133,28.8993 3.5,24.5C 3.5,23.8333 3.5,23.1667 3.5,22.5 Z M 25.5,59.5 C 24.8826,59.3893 24.3826,59.056 24,58.5C 23.5002,48.8391 23.3335,39.1724 23.5,29.5C 24.1174,29.3893 24.6174,29.056 25,28.5C 25.4998,38.828 25.6665,49.1613 25.5,59.5 Z M 32.5,28.5 C 34.4753,38.4459 35.1419,48.7792 34.5,59.5C 33.8826,59.3893 33.3826,59.056 33,58.5C 32.5002,48.5056 32.3335,38.5056 32.5,28.5 Z"/></g>
<g><path style="opacity:0.047" fill="#967d6a" d="M 16.5,28.5 C 15.5058,38.6532 15.1724,48.9865 15.5,59.5C 14.1765,48.9927 14.1765,38.3261 15.5,27.5C 16.1067,27.6236 16.44,27.9569 16.5,28.5 Z"/></g>
<g><path style="opacity:0.067" fill="#985a5a" d="M 16.5,28.5 C 17.8235,39.0073 17.8235,49.6739 16.5,60.5C 15.8933,60.3764 15.56,60.0431 15.5,59.5C 16.4942,49.3468 16.8276,39.0135 16.5,28.5 Z"/></g>
<g><path style="opacity:0.09" fill="#9f5b50" d="M 25.5,59.5 C 25.6665,49.1613 25.4998,38.828 25,28.5C 24.6174,29.056 24.1174,29.3893 23.5,29.5C 23.8212,27.9519 24.8212,27.2852 26.5,27.5C 26.8278,38.3464 26.4944,49.0131 25.5,59.5 Z"/></g>
<g><path style="opacity:0.227" fill="#b4685f" d="M 32.5,28.5 C 33.209,27.596 34.209,27.2627 35.5,27.5C 35.8278,38.3464 35.4944,49.0131 34.5,59.5C 35.1419,48.7792 34.4753,38.4459 32.5,28.5 Z"/></g>
<g><path style="opacity:0.071" fill="#a6665e" d="M 3.5,24.5 C 4.19133,28.8993 4.858,33.3993 5.5,38C 4.94404,38.3826 4.61071,38.8826 4.5,39.5C 3.51283,34.6946 3.17949,29.6946 3.5,24.5 Z"/></g>
<g><path style="opacity:0.067" fill="#a46962" d="M 4.5,45.5 C 5.19133,49.8993 5.858,54.3993 6.5,59C 5.94404,59.3826 5.61071,59.8826 5.5,60.5C 4.51283,55.6946 4.17949,50.6946 4.5,45.5 Z"/></g>
</svg>
