<?xml version="1.0" encoding="UTF-8"?>
<!DOCTYPE svg PUBLIC "-//W3C//DTD SVG 1.1//EN" "http://www.w3.org/Graphics/SVG/1.1/DTD/svg11.dtd">
<svg xmlns="http://www.w3.org/2000/svg" version="1.1" width="128px" height="128px" style="shape-rendering:geometricPrecision; text-rendering:geometricPrecision; image-rendering:optimizeQuality; fill-rule:evenodd; clip-rule:evenodd" xmlns:xlink="http://www.w3.org/1999/xlink">
<g><path style="opacity:0.983" fill="#f4f4f4" d="M 98.5,50.5 C 95.5,48.5 92.5,46.5 89.5,44.5C 86.8333,39.8333 83.1667,36.1667 78.5,33.5C 75.8083,32.4095 75.1416,30.7428 76.5,28.5C 78.5,28.5 79.5,27.5 79.5,25.5C 81.6281,22.8697 83.9614,20.3697 86.5,18C 88.1667,17.3333 89.8333,17.3333 91.5,18C 98.2534,24.0816 104.253,30.7483 109.5,38C 106.726,42.9418 103.059,47.1084 98.5,50.5 Z"/></g>
<g><path style="opacity:0.239" fill="#b9b9b9" d="M 79.5,25.5 C 79.5,27.5 78.5,28.5 76.5,28.5C 77.1667,27.1667 78.1667,26.1667 79.5,25.5 Z"/></g>
<g><path style="opacity:0.956" fill="#f4f4f4" d="M 26.5,78.5 C 32.8333,74.1667 38.1667,68.8333 42.5,62.5C 52.1457,52.1877 62.1457,42.1877 72.5,32.5C 79.819,39.3187 86.9856,46.3187 94,53.5C 94.6667,54.1667 94.6667,54.8333 94,55.5C 79.1667,70.3333 64.3333,85.1667 49.5,100C 44.8254,102.784 39.8254,104.117 34.5,104C 32,98.8333 28.1667,95 23,92.5C 22.8235,87.5236 23.9901,82.857 26.5,78.5 Z M 72.5,43.5 C 74.2252,43.8425 74.7252,44.8425 74,46.5C 61.986,58.6809 49.8193,70.6809 37.5,82.5C 36.4173,81.635 36.2506,80.635 37,79.5C 49.0353,67.6318 60.8687,55.6318 72.5,43.5 Z M 81.5,52.5 C 83.0281,52.5173 83.5281,53.184 83,54.5C 71.1667,66.3333 59.3333,78.1667 47.5,90C 46.5,90.6667 45.5,90.6667 44.5,90C 56.3664,76.9674 68.6998,64.4674 81.5,52.5 Z"/></g>
<g><path style="opacity:0.298" fill="#b2b2b2" d="M 78.5,33.5 C 83.1667,36.1667 86.8333,39.8333 89.5,44.5C 85.5,41.1667 81.8333,37.5 78.5,33.5 Z"/></g>
<g><path style="opacity:0.298" fill="#b6b6b6" d="M 89.5,44.5 C 92.5,46.5 95.5,48.5 98.5,50.5C 97.7494,51.5735 96.7494,51.7401 95.5,51C 93.2941,48.9633 91.2941,46.7966 89.5,44.5 Z"/></g>
<g><path style="opacity:0.208" fill="#bebebe" d="M 42.5,62.5 C 38.1667,68.8333 32.8333,74.1667 26.5,78.5C 31.5,72.8333 36.8333,67.5 42.5,62.5 Z"/></g>
<g><path style="opacity:0.09" fill="#b4b4b4" d="M 23.5,95.5 C 22.391,95.5569 21.391,95.8902 20.5,96.5C 21.0527,94.4482 22.0527,94.1148 23.5,95.5 Z"/></g>
<g><path style="opacity:0.968" fill="#f2f2f2" d="M 23.5,95.5 C 28.1524,96.8191 31.1524,99.8191 32.5,104.5C 30.2973,107.356 27.2973,108.689 23.5,108.5C 21.7376,108.357 20.0709,108.691 18.5,109.5C 18.0798,107.674 18.0798,105.674 18.5,103.5C 18.767,101.035 19.4336,98.7014 20.5,96.5C 21.391,95.8902 22.391,95.5569 23.5,95.5 Z"/></g>
<g><path style="opacity:0.024" fill="#bebebe" d="M 18.5,103.5 C 18.0798,105.674 18.0798,107.674 18.5,109.5C 20.0709,108.691 21.7376,108.357 23.5,108.5C 21.4855,109.924 19.1522,110.59 16.5,110.5C 16.4095,107.848 17.0762,105.515 18.5,103.5 Z"/></g>
</svg>
