<?xml version="1.0" encoding="UTF-8"?>
<!DOCTYPE svg PUBLIC "-//W3C//DTD SVG 1.1//EN" "http://www.w3.org/Graphics/SVG/1.1/DTD/svg11.dtd">
<svg xmlns="http://www.w3.org/2000/svg" version="1.1" width="128px" height="128px" style="shape-rendering:geometricPrecision; text-rendering:geometricPrecision; image-rendering:optimizeQuality; fill-rule:evenodd; clip-rule:evenodd" xmlns:xlink="http://www.w3.org/1999/xlink">
<g><path style="opacity:1" fill="#212121" d="M 92.5,19.5 C 94.1667,20.5 95.5,21.8333 96.5,23.5C 99.7703,28.4397 103.77,32.7731 108.5,36.5C 109.833,37.5 109.833,38.5 108.5,39.5C 104.536,42.9629 100.702,46.6295 97,50.5C 94.8943,47.8823 92.3943,45.8823 89.5,44.5C 86.8333,39.8333 83.1667,36.1667 78.5,33.5C 78.4894,31.9826 77.8228,30.8159 76.5,30C 80.1667,26.3333 83.8333,22.6667 87.5,19C 89.1966,18.6155 90.8632,18.7822 92.5,19.5 Z"/></g>
<g><path style="opacity:0.416" fill="#868686" d="M 92.5,19.5 C 90.8632,18.7822 89.1966,18.6155 87.5,19C 83.8333,22.6667 80.1667,26.3333 76.5,30C 77.8228,30.8159 78.4894,31.9826 78.5,33.5C 76.0863,32.5944 75.253,30.9278 76,28.5C 79.5,25 83,21.5 86.5,18C 88.9894,17.0589 90.9894,17.5589 92.5,19.5 Z"/></g>
<g><path style="opacity:0.4" fill="#7d7d7d" d="M 96.5,23.5 C 101.23,27.2269 105.23,31.5603 108.5,36.5C 103.77,32.7731 99.7703,28.4397 96.5,23.5 Z"/></g>
<g><path style="opacity:0.298" fill="#707070" d="M 78.5,33.5 C 83.1667,36.1667 86.8333,39.8333 89.5,44.5C 85.5,41.1667 81.8333,37.5 78.5,33.5 Z"/></g>
<g><path style="opacity:0.999" fill="#252525" d="M 74.5,34.5 C 75.5,34.8333 76.1667,35.5 76.5,36.5C 76.5,38.5 77.5,39.5 79.5,39.5C 79.8333,41.8333 81.1667,43.1667 83.5,43.5C 85.1667,44.5 86.5,45.8333 87.5,47.5C 87.5,49.5 88.5,50.5 90.5,50.5C 91.6298,52.3146 92.2964,54.3146 92.5,56.5C 81.9204,65.5758 71.7537,75.2424 62,85.5C 61.5357,86.0944 61.369,86.7611 61.5,87.5C 59.5,87.5 58.5,88.5 58.5,90.5C 54.2294,93.1009 50.5628,96.4342 47.5,100.5C 47.1583,101.338 46.4916,101.672 45.5,101.5C 41.8333,102.167 38.1667,102.833 34.5,103.5C 31.855,98.6903 28.0217,95.0237 23,92.5C 22.3224,90.4024 22.4891,88.4024 23.5,86.5C 25.8337,84.8243 26.8337,82.491 26.5,79.5C 32.1667,74.5 37.5,69.1667 42.5,63.5C 52.2984,54.2022 61.965,44.7022 71.5,35C 72.448,34.5172 73.448,34.3505 74.5,34.5 Z M 74.5,46.5 C 72.8333,47.5 71.5,48.8333 70.5,50.5C 59.5,60.8333 48.8333,71.5 38.5,82.5C 36.1582,81.7893 35.8249,80.456 37.5,78.5C 40.1667,76.5 42.5,74.1667 44.5,71.5C 46.1667,70.5 47.5,69.1667 48.5,67.5C 51.1667,65.5 53.5,63.1667 55.5,60.5C 56.8333,59.8333 57.8333,58.8333 58.5,57.5C 61.5,55.1667 64.1667,52.5 66.5,49.5C 67.8333,48.8333 68.8333,47.8333 69.5,46.5C 70.5,46.1667 71.1667,45.5 71.5,44.5C 73.5983,43.0857 74.5983,43.7524 74.5,46.5 Z M 81.5,56.5 C 79.8333,57.5 78.5,58.8333 77.5,60.5C 74.8333,62.5 72.5,64.8333 70.5,67.5C 68.8333,68.5 67.5,69.8333 66.5,71.5C 63.8333,73.5 61.5,75.8333 59.5,78.5C 57.8333,79.5 56.5,80.8333 55.5,82.5C 52.8333,84.5 50.5,86.8333 48.5,89.5C 47.2921,90.2341 45.9587,90.5674 44.5,90.5C 51.1595,82.5079 58.1595,74.8412 65.5,67.5C 70.2713,63.2309 74.938,58.7309 79.5,54C 83.6819,52.0153 84.3486,52.8486 81.5,56.5 Z"/></g>
<g><path style="opacity:0.667" fill="#848484" d="M 76.5,36.5 C 77.8333,37.1667 78.8333,38.1667 79.5,39.5C 77.5,39.5 76.5,38.5 76.5,36.5 Z"/></g>
<g><path style="opacity:0.675" fill="#858585" d="M 79.5,39.5 C 81.1667,40.5 82.5,41.8333 83.5,43.5C 81.1667,43.1667 79.8333,41.8333 79.5,39.5 Z"/></g>
<g><path style="opacity:0.388" fill="#6e6e6e" d="M 74.5,46.5 C 74.5983,43.7524 73.5983,43.0857 71.5,44.5C 72.9979,41.9372 74.6646,41.9372 76.5,44.5C 76.1445,45.5223 75.4778,46.189 74.5,46.5 Z"/></g>
<g><path style="opacity:0.298" fill="#787878" d="M 108.5,39.5 C 105.553,44.2816 101.72,48.2816 97,51.5C 94.0135,49.6799 91.5135,47.3466 89.5,44.5C 92.3943,45.8823 94.8943,47.8823 97,50.5C 100.702,46.6295 104.536,42.9629 108.5,39.5 Z"/></g>
<g><path style="opacity:0.067" fill="#8a8a8a" d="M 69.5,46.5 C 68.8333,47.8333 67.8333,48.8333 66.5,49.5C 66.5,47.5 67.5,46.5 69.5,46.5 Z"/></g>
<g><path style="opacity:0.667" fill="#838383" d="M 87.5,47.5 C 88.8333,48.1667 89.8333,49.1667 90.5,50.5C 88.5,50.5 87.5,49.5 87.5,47.5 Z"/></g>
<g><path style="opacity:0.416" fill="#979797" d="M 74.5,34.5 C 73.448,34.3505 72.448,34.5172 71.5,35C 61.965,44.7022 52.2984,54.2022 42.5,63.5C 42.1667,63.5 41.8333,63.5 41.5,63.5C 51.2978,53.2016 61.2978,43.0349 71.5,33C 72.9976,32.4153 73.9976,32.9153 74.5,34.5 Z"/></g>
<g><path style="opacity:0.459" fill="#818181" d="M 90.5,50.5 C 92.1454,51.4787 93.4787,52.812 94.5,54.5C 94.1445,55.5223 93.4778,56.189 92.5,56.5C 92.2964,54.3146 91.6298,52.3146 90.5,50.5 Z"/></g>
<g><path style="opacity:0.966" fill="#3f3f3f" d="M 81.5,56.5 C 84.3486,52.8486 83.6819,52.0153 79.5,54C 74.938,58.7309 70.2713,63.2309 65.5,67.5C 65.5858,66.5041 65.2524,65.6708 64.5,65C 68.8333,60.6667 73.1667,56.3333 77.5,52C 79.8098,51.5034 82.1432,51.3367 84.5,51.5C 85.0838,54.285 84.0838,55.9517 81.5,56.5 Z"/></g>
<g><path style="opacity:0.067" fill="#8a8a8a" d="M 58.5,57.5 C 57.8333,58.8333 56.8333,59.8333 55.5,60.5C 55.5,58.5 56.5,57.5 58.5,57.5 Z"/></g>
<g><path style="opacity:0.416" fill="#7c7c7c" d="M 81.5,56.5 C 81.1667,58.8333 79.8333,60.1667 77.5,60.5C 78.5,58.8333 79.8333,57.5 81.5,56.5 Z"/></g>
<g><path style="opacity:0.075" fill="#a0a0a0" d="M 92.5,56.5 C 82.5,67.1667 72.1667,77.5 61.5,87.5C 61.369,86.7611 61.5357,86.0944 62,85.5C 71.7537,75.2424 81.9204,65.5758 92.5,56.5 Z"/></g>
<g><path style="opacity:0.412" fill="#7c7c7c" d="M 77.5,60.5 C 76.1667,63.8333 73.8333,66.1667 70.5,67.5C 72.5,64.8333 74.8333,62.5 77.5,60.5 Z"/></g>
<g><path style="opacity:0.071" fill="#8d8d8d" d="M 48.5,67.5 C 47.5,69.1667 46.1667,70.5 44.5,71.5C 44.8333,69.1667 46.1667,67.8333 48.5,67.5 Z"/></g>
<g><path style="opacity:0.427" fill="#7b7b7b" d="M 70.5,67.5 C 70.1667,69.8333 68.8333,71.1667 66.5,71.5C 67.5,69.8333 68.8333,68.5 70.5,67.5 Z"/></g>
<g><path style="opacity:0.239" fill="#767676" d="M 41.5,63.5 C 41.8333,63.5 42.1667,63.5 42.5,63.5C 37.5,69.1667 32.1667,74.5 26.5,79.5C 30.7731,73.5578 35.7731,68.2244 41.5,63.5 Z"/></g>
<g><path style="opacity:0.96" fill="#414141" d="M 70.5,50.5 C 70.4894,52.0174 69.8228,53.1841 68.5,54C 68.8333,54.3333 69.1667,54.6667 69.5,55C 68,56.5 66.5,58 65,59.5C 64.6667,59.1667 64.3333,58.8333 64,58.5C 61.7012,62.666 58.7012,66.3327 55,69.5C 54.6667,69.1667 54.3333,68.8333 54,68.5C 51.0157,72.7511 47.6824,76.7511 44,80.5C 43.6667,80.1667 43.3333,79.8333 43,79.5C 41.871,81.1412 40.371,82.1412 38.5,82.5C 48.8333,71.5 59.5,60.8333 70.5,50.5 Z"/></g>
<g><path style="opacity:0.412" fill="#7d7d7d" d="M 66.5,71.5 C 65.1667,74.8333 62.8333,77.1667 59.5,78.5C 61.5,75.8333 63.8333,73.5 66.5,71.5 Z"/></g>
<g><path style="opacity:0.082" fill="#838383" d="M 37.5,78.5 C 35.8249,80.456 36.1582,81.7893 38.5,82.5C 37.791,83.404 36.791,83.7373 35.5,83.5C 35.0773,81.2188 35.744,79.5521 37.5,78.5 Z"/></g>
<g><path style="opacity:0.427" fill="#7b7b7b" d="M 59.5,78.5 C 59.1667,80.8333 57.8333,82.1667 55.5,82.5C 56.5,80.8333 57.8333,79.5 59.5,78.5 Z"/></g>
<g><path style="opacity:0.962" fill="#3c3c3c" d="M 65.5,67.5 C 58.1595,74.8412 51.1595,82.5079 44.5,90.5C 44.5,90.8333 44.5,91.1667 44.5,91.5C 43.3509,91.2089 42.6842,90.3756 42.5,89C 44.0641,84.6014 47.0641,81.7681 51.5,80.5C 51.3505,79.448 51.5172,78.448 52,77.5C 55.5,74 59,70.5 62.5,67C 63.5768,66.5304 64.5768,66.6971 65.5,67.5 Z"/></g>
<g><path style="opacity:0.349" fill="#727272" d="M 26.5,79.5 C 26.8337,82.491 25.8337,84.8243 23.5,86.5C 23.9348,83.8427 24.9348,81.5093 26.5,79.5 Z"/></g>
<g><path style="opacity:0.412" fill="#7d7d7d" d="M 55.5,82.5 C 54.1667,85.8333 51.8333,88.1667 48.5,89.5C 50.5,86.8333 52.8333,84.5 55.5,82.5 Z"/></g>
<g><path style="opacity:0.016" fill="#747474" d="M 61.5,87.5 C 60.8333,88.8333 59.8333,89.8333 58.5,90.5C 58.5,88.5 59.5,87.5 61.5,87.5 Z"/></g>
<g><path style="opacity:0.416" fill="#9b9b9b" d="M 48.5,89.5 C 47.8166,91.1765 46.4832,91.8432 44.5,91.5C 44.5,91.1667 44.5,90.8333 44.5,90.5C 45.9587,90.5674 47.2921,90.2341 48.5,89.5 Z"/></g>
<g><path style="opacity:0.016" fill="#7b7b7b" d="M 58.5,90.5 C 55.4372,94.5658 51.7706,97.8991 47.5,100.5C 50.5628,96.4342 54.2294,93.1009 58.5,90.5 Z"/></g>
<g><path style="opacity:0.894" fill="#585858" d="M 25.5,96.5 C 22.6824,96.6574 20.6824,97.9908 19.5,100.5C 19.8333,98.5 20.1667,96.5 20.5,94.5C 22.5529,94.4021 24.2196,95.0687 25.5,96.5 Z"/></g>
<g><path style="opacity:0.994" fill="#212121" d="M 25.5,96.5 C 26.8333,98.5 28.5,100.167 30.5,101.5C 31.562,103.234 31.562,104.901 30.5,106.5C 27.8478,106.41 25.5145,107.076 23.5,108.5C 21.326,108.92 19.326,108.92 17.5,108.5C 19.0553,106.057 19.722,103.39 19.5,100.5C 20.6824,97.9908 22.6824,96.6574 25.5,96.5 Z"/></g>
<g><path style="opacity:0.024" fill="#969696" d="M 25.5,96.5 C 28.1667,97.1667 29.8333,98.8333 30.5,101.5C 28.5,100.167 26.8333,98.5 25.5,96.5 Z"/></g>
<g><path style="opacity:0.075" fill="#a2a2a2" d="M 30.5,101.5 C 33.0479,103.296 33.0479,104.962 30.5,106.5C 31.562,104.901 31.562,103.234 30.5,101.5 Z"/></g>
<g><path style="opacity:0.051" fill="#747474" d="M 45.5,101.5 C 42.0374,103.891 38.3708,104.558 34.5,103.5C 38.1667,102.833 41.8333,102.167 45.5,101.5 Z"/></g>
<g><path style="opacity:0.122" fill="#878787" d="M 30.5,106.5 C 28.4855,107.924 26.1522,108.59 23.5,108.5C 25.5145,107.076 27.8478,106.41 30.5,106.5 Z"/></g>
<g><path style="opacity:0.294" fill="#5d5d5d" d="M 19.5,100.5 C 19.722,103.39 19.0553,106.057 17.5,108.5C 19.326,108.92 21.326,108.92 23.5,108.5C 21.4855,109.924 19.1522,110.59 16.5,110.5C 16.7234,106.838 17.7234,103.505 19.5,100.5 Z"/></g>
</svg>
