<?xml version="1.0" encoding="UTF-8"?>
<!DOCTYPE svg PUBLIC "-//W3C//DTD SVG 1.1//EN" "http://www.w3.org/Graphics/SVG/1.1/DTD/svg11.dtd">
<svg xmlns="http://www.w3.org/2000/svg" version="1.1" width="125px" height="125px" style="shape-rendering:geometricPrecision; text-rendering:geometricPrecision; image-rendering:optimizeQuality; fill-rule:evenodd; clip-rule:evenodd" xmlns:xlink="http://www.w3.org/1999/xlink">
<g><path style="opacity:0.95" fill="#080808" d="M 50.5,2.5 C 57.8333,2.5 65.1667,2.5 72.5,2.5C 78.3952,5.90297 84.7286,8.56964 91.5,10.5C 95.1994,13.3497 99.1994,15.683 103.5,17.5C 105.19,17.8564 106.19,18.8564 106.5,20.5C 107.389,23.5445 108.889,26.2112 111,28.5C 111.671,29.2524 112.504,29.5858 113.5,29.5C 113.5,29.8333 113.5,30.1667 113.5,30.5C 113.592,32.8477 114.592,34.5144 116.5,35.5C 116.853,39.913 117.686,44.2464 119,48.5C 119.671,49.2524 120.504,49.5858 121.5,49.5C 122.815,58.4017 122.815,67.4017 121.5,76.5C 120.5,76.5 119.5,76.5 118.5,76.5C 118.322,79.2165 117.822,81.8832 117,84.5C 114.163,88.8425 111.997,93.5091 110.5,98.5C 110.5,98.8333 110.5,99.1667 110.5,99.5C 101.759,106.582 92.7595,113.249 83.5,119.5C 83.1667,119.5 82.8333,119.5 82.5,119.5C 79.9621,119.507 77.4621,119.841 75,120.5C 73.6244,120.684 72.7911,121.351 72.5,122.5C 65.1667,122.5 57.8333,122.5 50.5,122.5C 46.4906,119.091 41.6572,117.091 36,116.5C 31.1501,113.839 26.6501,110.839 22.5,107.5C 19.7152,105.289 17.3819,102.623 15.5,99.5C 12.9522,94.3771 10.1188,89.3771 7,84.5C 6.1785,81.8832 5.6785,79.2165 5.5,76.5C 4.5,76.5 3.5,76.5 2.5,76.5C 1.36315,67.5779 1.19648,58.5779 2,49.5C 2.93689,45.7414 4.10356,42.0747 5.5,38.5C 8.35772,36.0123 10.6911,33.0123 12.5,29.5C 18.9141,21.9275 26.2474,15.0942 34.5,9C 37.783,7.97659 41.1164,7.14326 44.5,6.5C 46.9773,5.61517 48.9773,4.28183 50.5,2.5 Z M 55.5,20.5 C 60.1667,20.5 64.8333,20.5 69.5,20.5C 71.8056,20.9926 74.139,21.3259 76.5,21.5C 78.6123,23.7705 81.279,25.1039 84.5,25.5C 84.5,26.1667 84.8333,26.5 85.5,26.5C 91.1843,31.1845 96.1843,36.5179 100.5,42.5C 105.023,54.5499 105.69,66.8833 102.5,79.5C 100.2,82.1641 98.2003,85.1641 96.5,88.5C 93.1667,90.5 90.5,93.1667 88.5,96.5C 83.1686,99.3746 77.8353,102.041 72.5,104.5C 71.1667,104.5 69.8333,104.5 68.5,104.5C 64.1667,104.5 59.8333,104.5 55.5,104.5C 54.1667,104.5 52.8333,104.5 51.5,104.5C 47.3917,102.283 43.0584,100.283 38.5,98.5C 34.8273,95.1322 31.1606,91.7988 27.5,88.5C 25.7997,85.1641 23.7997,82.1641 21.5,79.5C 19.3375,69.5649 19.0042,59.5649 20.5,49.5C 21.7445,47.3366 22.7445,45.0033 23.5,42.5C 27.8157,36.5179 32.8157,31.1845 38.5,26.5C 39.1667,26.5 39.5,26.1667 39.5,25.5C 42.721,25.1039 45.3877,23.7705 47.5,21.5C 50.1667,21.1667 52.8333,20.8333 55.5,20.5 Z"/></g>
<g><path style="opacity:0.139" fill="#505050" d="M 72.5,2.5 C 78.245,2.78708 83.745,4.12041 89,6.5C 90.0299,6.83611 90.5299,7.50278 90.5,8.5C 90.8333,9.16667 91.1667,9.83333 91.5,10.5C 84.7286,8.56964 78.3952,5.90297 72.5,2.5 Z"/></g>
<g><path style="opacity:0.278" fill="#8e8e8e" d="M 90.5,8.5 C 92.3084,8.49136 93.9751,8.99136 95.5,10C 98.9607,11.7893 101.627,14.2893 103.5,17.5C 99.1994,15.683 95.1994,13.3497 91.5,10.5C 91.1667,9.83333 90.8333,9.16667 90.5,8.5 Z"/></g>
<g><path style="opacity:0.557" fill="#424242" d="M 50.5,2.5 C 48.9773,4.28183 46.9773,5.61517 44.5,6.5C 41.1164,7.14326 37.783,7.97659 34.5,9C 26.2474,15.0942 18.9141,21.9275 12.5,29.5C 13.3627,27.5786 14.0293,25.5786 14.5,23.5C 19.1667,20.8333 22.8333,17.1667 25.5,12.5C 32.8913,6.9461 41.2246,3.61277 50.5,2.5 Z"/></g>
<g><path style="opacity:0.028" fill="#565656" d="M 69.5,20.5 C 64.8333,20.5 60.1667,20.5 55.5,20.5C 55.5106,18.9826 56.1772,17.8159 57.5,17C 60.8168,16.5017 64.1501,16.335 67.5,16.5C 67.5271,18.1993 68.1938,19.5326 69.5,20.5 Z"/></g>
<g><path style="opacity:0.09" fill="#a2a2a2" d="M 25.5,12.5 C 22.8333,17.1667 19.1667,20.8333 14.5,23.5C 17.8333,19.5 21.5,15.8333 25.5,12.5 Z"/></g>
<g><path style="opacity:0.118" fill="#aeaeae" d="M 106.5,20.5 C 110.132,22.4845 112.465,25.4845 113.5,29.5C 112.504,29.5858 111.671,29.2524 111,28.5C 108.889,26.2112 107.389,23.5445 106.5,20.5 Z"/></g>
<g><path style="opacity:0.098" fill="#7b7b7b" d="M 47.5,21.5 C 45.3877,23.7705 42.721,25.1039 39.5,25.5C 39.5,24.5 39.5,23.5 39.5,22.5C 41.5504,22.0388 43.5504,21.3721 45.5,20.5C 46.1835,20.8627 46.8501,21.1961 47.5,21.5 Z"/></g>
<g><path style="opacity:0.184" fill="#7e7e7e" d="M 76.5,21.5 C 78.5273,21.3379 80.5273,21.5045 82.5,22C 83.9733,22.7096 84.6399,23.8762 84.5,25.5C 81.279,25.1039 78.6123,23.7705 76.5,21.5 Z"/></g>
<g><path style="opacity:0.102" fill="#a4a4a4" d="M 38.5,26.5 C 32.8157,31.1845 27.8157,36.5179 23.5,42.5C 23.3433,41.1266 23.51,39.7932 24,38.5C 27.6939,33.4728 32.0272,29.1395 37,25.5C 37.3826,26.056 37.8826,26.3893 38.5,26.5 Z"/></g>
<g><path style="opacity:0.255" fill="#8d8d8d" d="M 56.5,27.5 C 55.4479,29.256 53.7812,29.9227 51.5,29.5C 52.6354,27.7868 54.302,27.1201 56.5,27.5 Z"/></g>
<g><path style="opacity:0.424" fill="#6b6b6b" d="M 65.5,27.5 C 67.5273,27.3379 69.5273,27.5045 71.5,28C 72.056,28.3826 72.3893,28.8826 72.5,29.5C 69.6122,30.0102 67.2789,29.3435 65.5,27.5 Z"/></g>
<g><path style="opacity:0.977" fill="#030303" d="M 56.5,27.5 C 59.5,27.5 62.5,27.5 65.5,27.5C 67.2789,29.3435 69.6122,30.0102 72.5,29.5C 74.6949,31.2941 77.0282,33.1274 79.5,35C 80.448,35.4828 81.448,35.6495 82.5,35.5C 83.8333,36.1667 84.8333,37.1667 85.5,38.5C 88.2714,42.39 91.2714,46.0567 94.5,49.5C 94.7828,50.2891 95.2828,50.9558 96,51.5C 96.4995,57.4908 96.6662,63.4908 96.5,69.5C 95.1667,69.5 93.8333,69.5 92.5,69.5C 91.7995,73.2385 90.7995,76.9051 89.5,80.5C 89.631,81.2389 89.4643,81.9056 89,82.5C 84.8784,85.098 81.7117,88.4314 79.5,92.5C 76.6067,92.0311 74.6067,93.0311 73.5,95.5C 73.1667,95.5 72.8333,95.5 72.5,95.5C 70.2188,95.0773 68.5521,95.744 67.5,97.5C 64.5,97.5 61.5,97.5 58.5,97.5C 58.5,96.5 58.5,95.5 58.5,94.5C 56.0971,94.448 53.7638,94.7814 51.5,95.5C 48.2195,93.5216 44.8862,91.5216 41.5,89.5C 41.0432,87.2273 39.7099,85.894 37.5,85.5C 34.7057,81.0461 32.3723,76.3794 30.5,71.5C 29.5,71.5 28.5,71.5 27.5,71.5C 27.3337,64.825 27.5004,58.1583 28,51.5C 28.2784,50.5842 28.7784,49.9175 29.5,49.5C 30.1667,49.5 30.8333,49.5 31.5,49.5C 33.9006,45.7236 36.5673,42.0569 39.5,38.5C 43.4756,35.7056 47.1423,32.7056 50.5,29.5C 50.8333,29.5 51.1667,29.5 51.5,29.5C 53.7812,29.9227 55.4479,29.256 56.5,27.5 Z"/></g>
<g><path style="opacity:0.086" fill="#818181" d="M 14.5,23.5 C 14.0293,25.5786 13.3627,27.5786 12.5,29.5C 10.6911,33.0123 8.35772,36.0123 5.5,38.5C 7.07861,34.1747 9.07861,30.008 11.5,26C 12.1301,24.6898 13.1301,23.8565 14.5,23.5 Z"/></g>
<g><path style="opacity:0.09" fill="#a8a8a8" d="M 100.5,42.5 C 96.1843,36.5179 91.1843,31.1845 85.5,26.5C 88.5412,25.5867 91.0412,26.5867 93,29.5C 94.8181,32.4813 96.9848,35.1479 99.5,37.5C 100.452,39.0453 100.785,40.712 100.5,42.5 Z"/></g>
<g><path style="opacity:0.088" fill="#828282" d="M 113.5,30.5 C 115.741,31.2998 116.741,32.9664 116.5,35.5C 116.741,32.9664 115.741,31.2998 113.5,30.5 Z"/></g>
<g><path style="opacity:0.318" fill="#434343" d="M 72.5,29.5 C 76.4566,29.489 79.7899,30.8223 82.5,33.5C 82.5,34.1667 82.5,34.8333 82.5,35.5C 81.448,35.6495 80.448,35.4828 79.5,35C 77.0282,33.1274 74.6949,31.2941 72.5,29.5 Z"/></g>
<g><path style="opacity:0.42" fill="#3f3f3f" d="M 39.5,22.5 C 39.5,23.5 39.5,24.5 39.5,25.5C 39.5,26.1667 39.1667,26.5 38.5,26.5C 37.8826,26.3893 37.3826,26.056 37,25.5C 32.0272,29.1395 27.6939,33.4728 24,38.5C 23.51,39.7932 23.3433,41.1266 23.5,42.5C 22.7445,45.0033 21.7445,47.3366 20.5,49.5C 19.4138,49.38 18.7472,48.7133 18.5,47.5C 22.3063,36.3702 29.3063,28.0368 39.5,22.5 Z"/></g>
<g><path style="opacity:0.086" fill="#b7b7b7" d="M 82.5,33.5 C 86.3889,34.4433 89.0555,36.7767 90.5,40.5C 88.7162,40.1075 87.0495,39.4408 85.5,38.5C 84.8333,37.1667 83.8333,36.1667 82.5,35.5C 82.5,34.8333 82.5,34.1667 82.5,33.5 Z"/></g>
<g><path style="opacity:0.22" fill="#999999" d="M 41.5,33.5 C 38.7752,37.4102 35.7752,41.2435 32.5,45C 31.8524,46.4397 31.5191,47.9397 31.5,49.5C 30.8333,49.5 30.1667,49.5 29.5,49.5C 30.1377,41.5424 34.1377,36.2091 41.5,33.5 Z"/></g>
<g><path style="opacity:0.643" fill="#393939" d="M 50.5,29.5 C 47.1423,32.7056 43.4756,35.7056 39.5,38.5C 36.5673,42.0569 33.9006,45.7236 31.5,49.5C 31.5191,47.9397 31.8524,46.4397 32.5,45C 35.7752,41.2435 38.7752,37.4102 41.5,33.5C 43.9902,31.1861 46.9902,29.8527 50.5,29.5 Z"/></g>
<g><path style="opacity:0.076" fill="#656565" d="M 85.5,38.5 C 87.0495,39.4408 88.7162,40.1075 90.5,40.5C 93.1842,42.8707 94.5175,45.8707 94.5,49.5C 91.2714,46.0567 88.2714,42.39 85.5,38.5 Z"/></g>
<g><path style="opacity:0.363" fill="#474747" d="M 116.5,35.5 C 118.437,38.1176 119.937,41.1176 121,44.5C 121.494,46.1341 121.66,47.8008 121.5,49.5C 120.504,49.5858 119.671,49.2524 119,48.5C 117.686,44.2464 116.853,39.913 116.5,35.5 Z"/></g>
<g><path style="opacity:0.576" fill="#2c2c2c" d="M 96.5,69.5 C 96.7406,71.8984 96.0739,73.8984 94.5,75.5C 93.0001,77.2216 91.3334,78.8883 89.5,80.5C 90.7995,76.9051 91.7995,73.2385 92.5,69.5C 93.8333,69.5 95.1667,69.5 96.5,69.5 Z"/></g>
<g><path style="opacity:0.396" fill="#3b3b3b" d="M 27.5,71.5 C 28.5,71.5 29.5,71.5 30.5,71.5C 32.3723,76.3794 34.7057,81.0461 37.5,85.5C 34.8259,82.4934 32.1592,79.4934 29.5,76.5C 28.8333,74.8333 28.1667,73.1667 27.5,71.5 Z"/></g>
<g><path style="opacity:0.289" fill="#434343" d="M 2.5,76.5 C 3.5,76.5 4.5,76.5 5.5,76.5C 5.6785,79.2165 6.1785,81.8832 7,84.5C 10.1188,89.3771 12.9522,94.3771 15.5,99.5C 14.2921,98.7659 12.9587,98.4326 11.5,98.5C 10.7659,97.2921 10.4326,95.9587 10.5,94.5C 10.4077,92.1523 9.40775,90.4856 7.5,89.5C 6.41383,89.38 5.74716,88.7133 5.5,87.5C 4.63709,83.7074 3.63709,80.0408 2.5,76.5 Z"/></g>
<g><path style="opacity:0.043" fill="#bababa" d="M 29.5,76.5 C 32.1592,79.4934 34.8259,82.4934 37.5,85.5C 37.9568,87.7727 39.2901,89.106 41.5,89.5C 41.5,90.1667 41.5,90.8333 41.5,91.5C 34.5988,88.9218 30.5988,83.9218 29.5,76.5 Z"/></g>
<g><path style="opacity:0.169" fill="#565656" d="M 121.5,76.5 C 120.337,84.1272 117.504,91.1272 113,97.5C 112.329,98.2524 111.496,98.5858 110.5,98.5C 111.997,93.5091 114.163,88.8425 117,84.5C 117.822,81.8832 118.322,79.2165 118.5,76.5C 119.5,76.5 120.5,76.5 121.5,76.5 Z"/></g>
<g><path style="opacity:0.067" fill="#bababa" d="M 90.5,85.5 C 88.5739,88.4655 85.9072,90.4655 82.5,91.5C 83.7135,88.4467 85.8801,86.1134 89,84.5C 89.3826,85.056 89.8826,85.3893 90.5,85.5 Z"/></g>
<g><path style="opacity:0.133" fill="#646464" d="M 21.5,79.5 C 23.7997,82.1641 25.7997,85.1641 27.5,88.5C 27.6287,90.2161 27.962,91.8828 28.5,93.5C 23.5616,90.2046 21.2283,85.538 21.5,79.5 Z"/></g>
<g><path style="opacity:0.412" fill="#585858" d="M 37.5,85.5 C 39.7099,85.894 41.0432,87.2273 41.5,89.5C 39.2901,89.106 37.9568,87.7727 37.5,85.5 Z"/></g>
<g><path style="opacity:0.416" fill="#5a5a5a" d="M 94.5,75.5 C 94.6567,76.8734 94.49,78.2068 94,79.5C 92.5787,81.4048 91.412,83.4048 90.5,85.5C 89.8826,85.3893 89.3826,85.056 89,84.5C 85.8801,86.1134 83.7135,88.4467 82.5,91.5C 81.791,92.404 80.791,92.7373 79.5,92.5C 81.7117,88.4314 84.8784,85.098 89,82.5C 89.4643,81.9056 89.631,81.2389 89.5,80.5C 91.3334,78.8883 93.0001,77.2216 94.5,75.5 Z"/></g>
<g><path style="opacity:0.471" fill="#4f4f4f" d="M 102.5,79.5 C 103.101,84.7701 101.101,88.4368 96.5,90.5C 96.5,89.8333 96.5,89.1667 96.5,88.5C 98.2003,85.1641 100.2,82.1641 102.5,79.5 Z"/></g>
<g><path style="opacity:0.098" fill="#d3d3d3" d="M 96.5,88.5 C 96.5,89.1667 96.5,89.8333 96.5,90.5C 95.1634,91.3149 94.1634,92.4815 93.5,94C 92.0997,95.4381 90.433,96.2714 88.5,96.5C 90.5,93.1667 93.1667,90.5 96.5,88.5 Z"/></g>
<g><path style="opacity:0.035" fill="#787878" d="M 7.5,89.5 C 9.40775,90.4856 10.4077,92.1523 10.5,94.5C 8.25915,93.7002 7.25915,92.0336 7.5,89.5 Z"/></g>
<g><path style="opacity:0.149" fill="#4c4c4c" d="M 41.5,89.5 C 44.8862,91.5216 48.2195,93.5216 51.5,95.5C 47.5434,95.511 44.2101,94.1777 41.5,91.5C 41.5,90.8333 41.5,90.1667 41.5,89.5 Z"/></g>
<g><path style="opacity:0.024" fill="#585858" d="M 79.5,92.5 C 78.216,94.6138 76.216,95.6138 73.5,95.5C 74.6067,93.0311 76.6067,92.0311 79.5,92.5 Z"/></g>
<g><path style="opacity:0.09" fill="#b8b8b8" d="M 27.5,88.5 C 31.1606,91.7988 34.8273,95.1322 38.5,98.5C 36.079,98.1218 33.7457,97.4552 31.5,96.5C 30.8333,95.1667 29.8333,94.1667 28.5,93.5C 27.962,91.8828 27.6287,90.2161 27.5,88.5 Z"/></g>
<g><path style="opacity:0.1" fill="#787878" d="M 72.5,95.5 C 71.4479,97.256 69.7812,97.9227 67.5,97.5C 68.5521,95.744 70.2188,95.0773 72.5,95.5 Z"/></g>
<g><path style="opacity:0.141" fill="#505050" d="M 58.5,97.5 C 56.4727,97.6621 54.4727,97.4955 52.5,97C 51.944,96.6174 51.6107,96.1174 51.5,95.5C 53.7638,94.7814 56.0971,94.448 58.5,94.5C 58.5,95.5 58.5,96.5 58.5,97.5 Z"/></g>
<g><path style="opacity:0.204" fill="#525252" d="M 31.5,96.5 C 33.7457,97.4552 36.079,98.1218 38.5,98.5C 43.0584,100.283 47.3917,102.283 51.5,104.5C 51.38,105.586 50.7133,106.253 49.5,106.5C 47.5,106 45.5,105.5 43.5,105C 39.5323,101.874 35.5323,99.0404 31.5,96.5 Z"/></g>
<g><path style="opacity:0.02" fill="#4e4e4e" d="M 96.5,90.5 C 96.5772,93.0124 95.5772,95.0124 93.5,96.5C 89.1559,98.6705 85.1559,101.337 81.5,104.5C 79.9579,105.747 78.4579,105.747 77,104.5C 75.3111,107.133 73.8111,107.133 72.5,104.5C 77.8353,102.041 83.1686,99.3746 88.5,96.5C 90.433,96.2714 92.0997,95.4381 93.5,94C 94.1634,92.4815 95.1634,91.3149 96.5,90.5 Z"/></g>
<g><path style="opacity:0.031" fill="#949494" d="M 11.5,98.5 C 12.9587,98.4326 14.2921,98.7659 15.5,99.5C 17.3819,102.623 19.7152,105.289 22.5,107.5C 23.1098,108.391 23.4431,109.391 23.5,110.5C 19.046,106.897 15.046,102.897 11.5,98.5 Z"/></g>
<g><path style="opacity:0.459" fill="#525252" d="M 55.5,104.5 C 59.8333,104.5 64.1667,104.5 68.5,104.5C 68.67,105.822 68.3366,106.989 67.5,108C 63.8333,108.667 60.1667,108.667 56.5,108C 55.6634,106.989 55.33,105.822 55.5,104.5 Z"/></g>
<g><path style="opacity:0.216" fill="#737373" d="M 110.5,99.5 C 104.448,109.984 95.4483,116.651 83.5,119.5C 92.7595,113.249 101.759,106.582 110.5,99.5 Z"/></g>
<g><path style="opacity:0.098" fill="#5d5d5d" d="M 22.5,107.5 C 26.6501,110.839 31.1501,113.839 36,116.5C 41.6572,117.091 46.4906,119.091 50.5,122.5C 39.9528,121.557 30.9528,117.557 23.5,110.5C 23.4431,109.391 23.1098,108.391 22.5,107.5 Z"/></g>
<g><path style="opacity:0.133" fill="#4d4d4d" d="M 82.5,119.5 C 82.38,120.586 81.7133,121.253 80.5,121.5C 77.8853,122.269 75.2186,122.603 72.5,122.5C 72.7911,121.351 73.6244,120.684 75,120.5C 77.4621,119.841 79.9621,119.507 82.5,119.5 Z"/></g>
</svg>
