<?xml version="1.0" encoding="UTF-8"?>
<!DOCTYPE svg PUBLIC "-//W3C//DTD SVG 1.1//EN" "http://www.w3.org/Graphics/SVG/1.1/DTD/svg11.dtd">
<svg xmlns="http://www.w3.org/2000/svg" version="1.1" width="125px" height="125px" style="shape-rendering:geometricPrecision; text-rendering:geometricPrecision; image-rendering:optimizeQuality; fill-rule:evenodd; clip-rule:evenodd" xmlns:xlink="http://www.w3.org/1999/xlink">
<g><path style="opacity:0.561" fill="#777777" d="M 44.5,-0.5 C 53.8333,-0.5 63.1667,-0.5 72.5,-0.5C 72.5,-0.166667 72.5,0.166667 72.5,0.5C 64.4931,0.333622 56.4931,0.500289 48.5,1C 46.6031,2.10975 44.7698,2.27642 43,1.5C 42.2411,3.63489 40.7411,4.96823 38.5,5.5C 37.4777,5.14451 36.811,4.47784 36.5,3.5C 39.2283,2.13587 41.8949,0.802535 44.5,-0.5 Z"/></g>
<g><path style="opacity:1" fill="#fefefe" d="M 72.5,0.5 C 75.667,0.400127 78.667,1.06679 81.5,2.5C 82.9647,1.3913 83.9647,1.8913 84.5,4C 89.1445,5.32625 93.3112,7.49292 97,10.5C 97.7172,9.9558 98.2172,9.28913 98.5,8.5C 100.973,8.08824 102.306,9.08824 102.5,11.5C 101.504,11.5858 100.671,11.2524 100,10.5C 102.805,15.4883 106.638,19.8216 111.5,23.5C 113.775,27.6155 116.275,31.6155 119,35.5C 120.773,39.9624 122.606,44.2958 124.5,48.5C 124.5,56.8333 124.5,65.1667 124.5,73.5C 122.399,77.6102 120.566,81.9435 119,86.5C 116.275,90.3845 113.775,94.3845 111.5,98.5C 107.833,101.5 104.5,104.833 101.5,108.5C 94.9631,113.384 87.9631,117.384 80.5,120.5C 70.6769,121.091 61.0102,121.758 51.5,122.5C 48.9407,122.802 46.6074,122.468 44.5,121.5C 44.9382,121.565 45.2716,121.399 45.5,121C 29.3142,114.197 16.4809,102.697 7,86.5C 2.11829,76.3736 0.284957,65.707 1.5,54.5C 3.31426,43.0428 7.64759,32.7094 14.5,23.5C 19.3616,19.8216 23.1949,15.4883 26,10.5C 24.549,12.4641 22.7157,13.7974 20.5,14.5C 22.2575,10.4078 25.2575,7.74108 29.5,6.5C 28.9717,7.84736 28.805,9.1807 29,10.5C 30.4413,9.13003 32.108,8.13003 34,7.5C 34.5281,6.18398 34.0281,5.51731 32.5,5.5C 33.1834,3.82351 34.5168,3.15684 36.5,3.5C 36.811,4.47784 37.4777,5.14451 38.5,5.5C 40.7411,4.96823 42.2411,3.63489 43,1.5C 44.7698,2.27642 46.6031,2.10975 48.5,1C 56.4931,0.500289 64.4931,0.333622 72.5,0.5 Z M 90.5,26.5 C 92.8121,30.1454 95.8121,33.1454 99.5,35.5C 100.937,39.8296 102.937,43.8296 105.5,47.5C 106.434,51.9275 107.1,56.4275 107.5,61C 107.1,65.5725 106.434,70.0725 105.5,74.5C 102.989,78.6678 100.655,83.0011 98.5,87.5C 94.8546,89.8121 91.8546,92.8121 89.5,96.5C 74.0566,105.962 58.0566,106.962 41.5,99.5C 41.1583,98.6618 40.4916,98.3284 39.5,98.5C 38.7777,97.4489 37.7777,96.7822 36.5,96.5C 33.8752,92.7071 30.7085,89.3737 27,86.5C 25.1016,82.2582 22.9349,78.2582 20.5,74.5C 18.9064,67.2808 18.2397,59.9475 18.5,52.5C 20.4824,50.403 21.4824,47.7363 21.5,44.5C 22.4972,44.5299 23.1639,44.0299 23.5,43C 24.5349,40.4646 25.5349,37.9646 26.5,35.5C 30.1879,33.1454 33.1879,30.1454 35.5,26.5C 53.8333,14.5 72.1667,14.5 90.5,26.5 Z"/></g>
<g><path style="opacity:0.024" fill="#a9a9a9" d="M 72.5,0.5 C 72.5,0.166667 72.5,-0.166667 72.5,-0.5C 75.5,-0.5 78.5,-0.5 81.5,-0.5C 85.0706,1.92057 89.0706,3.58724 93.5,4.5C 95.4192,5.61248 97.0858,6.94581 98.5,8.5C 98.2172,9.28913 97.7172,9.9558 97,10.5C 93.3112,7.49292 89.1445,5.32625 84.5,4C 83.9647,1.8913 82.9647,1.3913 81.5,2.5C 78.667,1.06679 75.667,0.400127 72.5,0.5 Z"/></g>
<g><path style="opacity:0.275" fill="#898989" d="M 32.5,5.5 C 34.0281,5.51731 34.5281,6.18398 34,7.5C 32.108,8.13003 30.4413,9.13003 29,10.5C 28.805,9.1807 28.9717,7.84736 29.5,6.5C 30.391,5.89022 31.391,5.55688 32.5,5.5 Z"/></g>
<g><path style="opacity:0.453" fill="#717171" d="M 102.5,11.5 C 106.145,13.8121 109.145,16.8121 111.5,20.5C 112.116,21.7978 112.116,22.7978 111.5,23.5C 106.638,19.8216 102.805,15.4883 100,10.5C 100.671,11.2524 101.504,11.5858 102.5,11.5 Z"/></g>
<g><path style="opacity:0.596" fill="#636363" d="M 14.5,23.5 C 14.0618,23.5654 13.7284,23.3988 13.5,23C 15.4641,21.549 16.7974,19.7157 17.5,17.5C 17.8564,15.8102 18.8564,14.8102 20.5,14.5C 22.7157,13.7974 24.549,12.4641 26,10.5C 23.1949,15.4883 19.3616,19.8216 14.5,23.5 Z"/></g>
<g><path style="opacity:0.141" fill="#787878" d="M 107.5,47.5 C 106.833,47.5 106.167,47.5 105.5,47.5C 102.937,43.8296 100.937,39.8296 99.5,35.5C 99.719,34.325 99.3857,33.325 98.5,32.5C 96.0411,30.0164 93.3745,28.0164 90.5,26.5C 72.1667,14.5 53.8333,14.5 35.5,26.5C 33.965,27.3543 32.6316,27.3543 31.5,26.5C 32.6253,24.8712 33.9586,23.3712 35.5,22C 53.8333,12 72.1667,12 90.5,22C 94,25.5 97.5,29 101,32.5C 103.735,37.2991 105.902,42.2991 107.5,47.5 Z"/></g>
<g><path style="opacity:0.314" fill="#aeaeae" d="M 111.5,20.5 C 114.098,22.3044 116.265,24.6377 118,27.5C 120.248,31.9966 122.415,36.3299 124.5,40.5C 124.5,43.1667 124.5,45.8333 124.5,48.5C 122.606,44.2958 120.773,39.9624 119,35.5C 116.275,31.6155 113.775,27.6155 111.5,23.5C 112.116,22.7978 112.116,21.7978 111.5,20.5 Z"/></g>
<g><path style="opacity:0.337" fill="#bfbfbf" d="M 31.5,26.5 C 32.6316,27.3543 33.965,27.3543 35.5,26.5C 33.1879,30.1454 30.1879,33.1454 26.5,35.5C 26.3505,34.448 26.5172,33.448 27,32.5C 28.4866,31.8448 29.6533,30.8448 30.5,29.5C 30.3764,28.8933 30.0431,28.56 29.5,28.5C 29.8333,27.5 30.5,26.8333 31.5,26.5 Z"/></g>
<g><path style="opacity:0.067" fill="#c3c3c3" d="M 90.5,26.5 C 93.3745,28.0164 96.0411,30.0164 98.5,32.5C 99.3857,33.325 99.719,34.325 99.5,35.5C 95.8121,33.1454 92.8121,30.1454 90.5,26.5 Z"/></g>
<g><path style="opacity:0.018" fill="#acacac" d="M 17.5,17.5 C 16.7974,19.7157 15.4641,21.549 13.5,23C 13.7284,23.3988 14.0618,23.5654 14.5,23.5C 7.64759,32.7094 3.31426,43.0428 1.5,54.5C 1.16667,54.5 0.833333,54.5 0.5,54.5C 0.585598,39.3436 6.25226,27.0103 17.5,17.5 Z"/></g>
<g><path style="opacity:0.173" fill="#909090" d="M 29.5,28.5 C 30.0431,28.56 30.3764,28.8933 30.5,29.5C 29.6533,30.8448 28.4866,31.8448 27,32.5C 26.5172,33.448 26.3505,34.448 26.5,35.5C 25.5349,37.9646 24.5349,40.4646 23.5,43C 23.1639,44.0299 22.4972,44.5299 21.5,44.5C 20.8333,44.5 20.1667,44.5 19.5,44.5C 21.3353,38.1484 24.6687,32.815 29.5,28.5 Z"/></g>
<g><path style="opacity:0.137" fill="#393939" d="M 19.5,44.5 C 20.1667,44.5 20.8333,44.5 21.5,44.5C 21.4824,47.7363 20.4824,50.403 18.5,52.5C 17.8333,52.5 17.1667,52.5 16.5,52.5C 16.9802,49.5568 17.9802,46.8902 19.5,44.5 Z"/></g>
<g><path style="opacity:0.155" fill="#111111" d="M 16.5,52.5 C 17.1667,52.5 17.8333,52.5 18.5,52.5C 18.2397,59.9475 18.9064,67.2808 20.5,74.5C 19.8333,74.5 19.1667,74.5 18.5,74.5C 17.7321,73.7375 17.2321,72.7375 17,71.5C 16.5005,65.1754 16.3338,58.8421 16.5,52.5 Z"/></g>
<g><path style="opacity:0.155" fill="#161616" d="M 105.5,47.5 C 106.167,47.5 106.833,47.5 107.5,47.5C 108.268,48.2625 108.768,49.2625 109,50.5C 109.667,57.8333 109.667,65.1667 109,72.5C 108.722,73.4158 108.222,74.0825 107.5,74.5C 106.833,74.5 106.167,74.5 105.5,74.5C 106.434,70.0725 107.1,65.5725 107.5,61C 107.1,56.4275 106.434,51.9275 105.5,47.5 Z"/></g>
<g><path style="opacity:0.667" fill="#959595" d="M 18.5,74.5 C 19.1667,74.5 19.8333,74.5 20.5,74.5C 22.9349,78.2582 25.1016,82.2582 27,86.5C 30.7085,89.3737 33.8752,92.7071 36.5,96.5C 35.209,96.2627 34.209,96.596 33.5,97.5C 25.7495,91.6754 20.7495,84.0087 18.5,74.5 Z"/></g>
<g><path style="opacity:0.096" fill="#878787" d="M 105.5,74.5 C 106.167,74.5 106.833,74.5 107.5,74.5C 105.616,81.944 101.949,88.2774 96.5,93.5C 95.9569,93.44 95.6236,93.1067 95.5,92.5C 96.9524,91.0603 97.9524,89.3936 98.5,87.5C 100.655,83.0011 102.989,78.6678 105.5,74.5 Z"/></g>
<g><path style="opacity:0.084" fill="#afafaf" d="M 124.5,73.5 C 124.5,76.1667 124.5,78.8333 124.5,81.5C 122.415,85.6701 120.248,90.0034 118,94.5C 116.265,97.3623 114.098,99.6956 111.5,101.5C 112.116,100.202 112.116,99.2022 111.5,98.5C 113.775,94.3845 116.275,90.3845 119,86.5C 120.566,81.9435 122.399,77.6102 124.5,73.5 Z"/></g>
<g><path style="opacity:0.078" fill="#c0c0c0" d="M 98.5,87.5 C 97.9524,89.3936 96.9524,91.0603 95.5,92.5C 95.6236,93.1067 95.9569,93.44 96.5,93.5C 96.1667,94.5 95.5,95.1667 94.5,95.5C 94.44,94.9569 94.1067,94.6236 93.5,94.5C 92.4805,95.6872 91.3139,96.6872 90,97.5C 89.6012,97.2716 89.4346,96.9382 89.5,96.5C 91.8546,92.8121 94.8546,89.8121 98.5,87.5 Z"/></g>
<g><path style="opacity:0.18" fill="#565656" d="M 36.5,96.5 C 37.7777,96.7822 38.7777,97.4489 39.5,98.5C 39.719,99.675 39.3857,100.675 38.5,101.5C 36.2145,100.867 34.5478,99.5338 33.5,97.5C 34.209,96.596 35.209,96.2627 36.5,96.5 Z"/></g>
<g><path style="opacity:0.333" fill="#6a6a6a" d="M 111.5,98.5 C 112.116,99.2022 112.116,100.202 111.5,101.5C 109.5,104.167 107.167,106.5 104.5,108.5C 103.202,109.116 102.202,109.116 101.5,108.5C 104.5,104.833 107.833,101.5 111.5,98.5 Z"/></g>
<g><path style="opacity:0.137" fill="#757575" d="M 94.5,95.5 C 92.1306,99.1949 88.7973,101.695 84.5,103C 77.5697,105.609 70.403,107.109 63,107.5C 55.597,107.109 48.4303,105.609 41.5,103C 40.3157,101.855 40.3157,100.688 41.5,99.5C 58.0566,106.962 74.0566,105.962 89.5,96.5C 89.4346,96.9382 89.6012,97.2716 90,97.5C 91.3139,96.6872 92.4805,95.6872 93.5,94.5C 94.1067,94.6236 94.44,94.9569 94.5,95.5 Z"/></g>
<g><path style="opacity:0.259" fill="#969696" d="M 0.5,54.5 C 0.833333,54.5 1.16667,54.5 1.5,54.5C 0.284957,65.707 2.11829,76.3736 7,86.5C 16.4809,102.697 29.3142,114.197 45.5,121C 45.2716,121.399 44.9382,121.565 44.5,121.5C 40.6187,119.984 36.6187,118.651 32.5,117.5C 8.57902,103.496 -2.08765,82.4957 0.5,54.5 Z"/></g>
<g><path style="opacity:0.041" fill="#8c8c8c" d="M 101.5,108.5 C 102.202,109.116 103.202,109.116 104.5,108.5C 103.748,110.1 102.748,111.6 101.5,113C 95.87,116.554 89.87,119.387 83.5,121.5C 72.866,122.454 62.1993,122.788 51.5,122.5C 61.0102,121.758 70.6769,121.091 80.5,120.5C 87.9631,117.384 94.9631,113.384 101.5,108.5 Z"/></g>
</svg>
