<?xml version="1.0" encoding="UTF-8"?>
<!DOCTYPE svg PUBLIC "-//W3C//DTD SVG 1.1//EN" "http://www.w3.org/Graphics/SVG/1.1/DTD/svg11.dtd">
<svg xmlns="http://www.w3.org/2000/svg" version="1.1" width="125px" height="125px" style="shape-rendering:geometricPrecision; text-rendering:geometricPrecision; image-rendering:optimizeQuality; fill-rule:evenodd; clip-rule:evenodd" xmlns:xlink="http://www.w3.org/1999/xlink">
<g><path style="opacity:0.963" fill="#060606" d="M 50.5,-0.5 C 59.1667,-0.5 67.8333,-0.5 76.5,-0.5C 83.5822,2.71977 90.5822,6.38644 97.5,10.5C 101.553,13.8827 105.886,16.8827 110.5,19.5C 112.413,23.2625 114.579,26.9291 117,30.5C 118.004,33.9622 119.17,37.2956 120.5,40.5C 122.563,44.6632 123.896,48.9966 124.5,53.5C 124.5,58.8333 124.5,64.1667 124.5,69.5C 122.326,75.8389 119.993,82.1723 117.5,88.5C 116.957,91.0384 115.957,93.3718 114.5,95.5C 111.548,96.3589 109.715,98.3589 109,101.5C 104.97,105.555 100.804,109.221 96.5,112.5C 95.2223,112.782 94.2223,113.449 93.5,114.5C 86.6156,117.048 79.949,119.714 73.5,122.5C 65.8333,122.5 58.1667,122.5 50.5,122.5C 50.6716,121.508 50.3382,120.842 49.5,120.5C 45.3294,118.924 40.9961,117.591 36.5,116.5C 29.7131,113.235 23.3798,109.235 17.5,104.5C 13.3186,97.9748 9.31855,91.3082 5.5,84.5C 3.84113,78.3139 2.17446,72.3139 0.5,66.5C 0.5,61.8333 0.5,57.1667 0.5,52.5C 2.11284,50.5395 3.11284,48.2061 3.5,45.5C 5.66354,41.8234 7.33021,37.8234 8.5,33.5C 8.5,33.1667 8.5,32.8333 8.5,32.5C 12.2941,29.5437 15.1274,25.877 17,21.5C 21.4296,16.5625 26.2629,12.2291 31.5,8.5C 35.054,7.22073 38.054,5.22073 40.5,2.5C 44.3453,2.71219 47.6786,1.71219 50.5,-0.5 Z M 53.5,17.5 C 54.5,17.5 55.5,17.5 56.5,17.5C 60.5,17.5 64.5,17.5 68.5,17.5C 69.8333,17.5 71.1667,17.5 72.5,17.5C 78.682,19.9418 84.682,22.9418 90.5,26.5C 92.8121,30.1454 95.8121,33.1454 99.5,35.5C 100.937,39.8296 102.937,43.8296 105.5,47.5C 106.434,51.9275 107.1,56.4275 107.5,61C 107.1,65.5725 106.434,70.0725 105.5,74.5C 104.596,75.209 104.263,76.209 104.5,77.5C 102.411,80.1487 100.578,83.1487 99,86.5C 95.2915,89.3737 92.1248,92.7071 89.5,96.5C 83.8658,99.4155 78.1991,102.082 72.5,104.5C 71.1667,104.5 69.8333,104.5 68.5,104.5C 64.5,104.5 60.5,104.5 56.5,104.5C 55.5,104.5 54.5,104.5 53.5,104.5C 51.3826,102.345 48.716,101.345 45.5,101.5C 42.8333,99.8333 40.1667,98.1667 37.5,96.5C 34.3741,93.2227 31.0408,90.2227 27.5,87.5C 25.3448,83.0011 23.0114,78.6678 20.5,74.5C 19.5664,70.0725 18.8997,65.5725 18.5,61C 18.8997,56.4275 19.5664,51.9275 20.5,47.5C 21.404,46.791 21.7373,45.791 21.5,44.5C 23.589,41.8513 25.4223,38.8513 27,35.5C 31.0777,31.6265 34.9111,27.6265 38.5,23.5C 38.8333,23.5 39.1667,23.5 39.5,23.5C 44.374,21.6868 49.0407,19.6868 53.5,17.5 Z"/></g>
<g><path style="opacity:0.431" fill="#919191" d="M 76.5,-0.5 C 78.1667,-0.5 79.8333,-0.5 81.5,-0.5C 86.3952,1.95611 91.3952,4.28944 96.5,6.5C 96.8333,7.83333 97.1667,9.16667 97.5,10.5C 90.5822,6.38644 83.5822,2.71977 76.5,-0.5 Z"/></g>
<g><path style="opacity:0.443" fill="#919191" d="M 44.5,-0.5 C 46.5,-0.5 48.5,-0.5 50.5,-0.5C 47.6786,1.71219 44.3453,2.71219 40.5,2.5C 41.4475,1.02211 42.7809,0.0221067 44.5,-0.5 Z"/></g>
<g><path style="opacity:0.275" fill="#9c9c9c" d="M 40.5,2.5 C 38.054,5.22073 35.054,7.22073 31.5,8.5C 27.3982,9.75182 23.7315,11.7518 20.5,14.5C 21.6151,12.545 22.9485,10.7116 24.5,9C 27.2966,7.76742 29.9632,6.26742 32.5,4.5C 35.0795,3.45115 37.7462,2.78449 40.5,2.5 Z"/></g>
<g><path style="opacity:0.027" fill="#d6d6d6" d="M 96.5,6.5 C 97.8816,7.80053 99.5483,8.63386 101.5,9C 102.252,9.67076 102.586,10.5041 102.5,11.5C 100.784,11.3713 99.1172,11.038 97.5,10.5C 97.1667,9.16667 96.8333,7.83333 96.5,6.5 Z"/></g>
<g><path style="opacity:0.627" fill="#525252" d="M 68.5,17.5 C 64.5,17.5 60.5,17.5 56.5,17.5C 56.5,16.1667 56.5,14.8333 56.5,13.5C 60.1817,13.3347 63.8484,13.5014 67.5,14C 68.3366,15.0113 68.67,16.1779 68.5,17.5 Z"/></g>
<g><path style="opacity:0.153" fill="#868686" d="M 97.5,10.5 C 99.1172,11.038 100.784,11.3713 102.5,11.5C 105.833,13.5 108.5,16.1667 110.5,19.5C 105.886,16.8827 101.553,13.8827 97.5,10.5 Z"/></g>
<g><path style="opacity:0.533" fill="#2e2e2e" d="M 31.5,8.5 C 26.2629,12.2291 21.4296,16.5625 17,21.5C 15.1274,25.877 12.2941,29.5437 8.5,32.5C 12.0038,26.1559 16.0038,20.1559 20.5,14.5C 23.7315,11.7518 27.3982,9.75182 31.5,8.5 Z"/></g>
<g><path style="opacity:0.145" fill="#707070" d="M 53.5,17.5 C 49.0407,19.6868 44.374,21.6868 39.5,23.5C 39.4326,22.0413 39.7659,20.7079 40.5,19.5C 44.3047,18.6292 47.9714,17.2958 51.5,15.5C 52.7133,15.7472 53.38,16.4138 53.5,17.5 Z"/></g>
<g><path style="opacity:0.008" fill="#686868" d="M 93.5,26.5 C 92.5,26.5 91.5,26.5 90.5,26.5C 84.682,22.9418 78.682,19.9418 72.5,17.5C 72.7911,16.3509 73.6244,15.6842 75,15.5C 82.3146,17.3306 88.4812,20.9973 93.5,26.5 Z"/></g>
<g><path style="opacity:0.171" fill="#383838" d="M 40.5,19.5 C 39.7659,20.7079 39.4326,22.0413 39.5,23.5C 39.1667,23.5 38.8333,23.5 38.5,23.5C 34.0243,24.6571 30.3577,26.9905 27.5,30.5C 28.2026,28.2843 29.5359,26.451 31.5,25C 34.5557,23.1444 37.5557,21.3111 40.5,19.5 Z"/></g>
<g><path style="opacity:0.057" fill="#a9a9a9" d="M 110.5,19.5 C 117.339,24.84 121.339,31.84 122.5,40.5C 121.833,40.5 121.167,40.5 120.5,40.5C 119.17,37.2956 118.004,33.9622 117,30.5C 114.579,26.9291 112.413,23.2625 110.5,19.5 Z"/></g>
<g><path style="opacity:0.553" fill="#6e6e6e" d="M 93.5,26.5 C 100.229,31.4139 104.895,37.9139 107.5,46C 107.164,47.0299 106.497,47.5299 105.5,47.5C 102.937,43.8296 100.937,39.8296 99.5,35.5C 99.6495,34.448 99.4828,33.448 99,32.5C 96.6681,30.797 94.8347,28.797 93.5,26.5 Z"/></g>
<g><path style="opacity:0.067" fill="#c1c1c1" d="M 90.5,26.5 C 91.5,26.5 92.5,26.5 93.5,26.5C 94.8347,28.797 96.6681,30.797 99,32.5C 99.4828,33.448 99.6495,34.448 99.5,35.5C 95.8121,33.1454 92.8121,30.1454 90.5,26.5 Z"/></g>
<g><path style="opacity:0.137" fill="#ababab" d="M 20.5,14.5 C 16.0038,20.1559 12.0038,26.1559 8.5,32.5C 8.5,32.8333 8.5,33.1667 8.5,33.5C 6.83333,35.5 5.16667,37.5 3.5,39.5C 4.24946,35.2393 5.74946,31.2393 8,27.5C 11.5073,22.3722 15.674,18.0389 20.5,14.5 Z"/></g>
<g><path style="opacity:0.102" fill="#a8a8a8" d="M 38.5,23.5 C 34.9111,27.6265 31.0777,31.6265 27,35.5C 25.4223,38.8513 23.589,41.8513 21.5,44.5C 20.9569,44.44 20.6236,44.1067 20.5,43.5C 23.098,39.3036 25.4314,34.9703 27.5,30.5C 30.3577,26.9905 34.0243,24.6571 38.5,23.5 Z"/></g>
<g><path style="opacity:0.596" fill="#3d3d3d" d="M 8.5,33.5 C 7.33021,37.8234 5.66354,41.8234 3.5,45.5C 3.5,43.8333 3.5,42.1667 3.5,40.5C 3.5,40.1667 3.5,39.8333 3.5,39.5C 5.16667,37.5 6.83333,35.5 8.5,33.5 Z"/></g>
<g><path style="opacity:0.457" fill="#474747" d="M 27.5,30.5 C 25.4314,34.9703 23.098,39.3036 20.5,43.5C 20.6236,44.1067 20.9569,44.44 21.5,44.5C 21.7373,45.791 21.404,46.791 20.5,47.5C 19.5028,47.5299 18.8361,47.0299 18.5,46C 20.0842,39.9379 23.0842,34.7712 27.5,30.5 Z"/></g>
<g><path style="opacity:0.039" fill="#bbbbbb" d="M 122.5,40.5 C 123.167,40.5 123.833,40.5 124.5,40.5C 124.5,41.8333 124.5,43.1667 124.5,44.5C 122.824,43.8166 122.157,42.4832 122.5,40.5 Z"/></g>
<g><path style="opacity:0.327" fill="#4f4f4f" d="M 120.5,40.5 C 121.167,40.5 121.833,40.5 122.5,40.5C 122.157,42.4832 122.824,43.8166 124.5,44.5C 124.5,47.5 124.5,50.5 124.5,53.5C 123.896,48.9966 122.563,44.6632 120.5,40.5 Z"/></g>
<g><path style="opacity:0.706" fill="#868686" d="M 3.5,40.5 C 3.5,42.1667 3.5,43.8333 3.5,45.5C 3.11284,48.2061 2.11284,50.5395 0.5,52.5C 0.505045,49.4682 0.838378,46.4682 1.5,43.5C 1.63985,41.9704 2.30652,40.9704 3.5,40.5 Z"/></g>
<g><path style="opacity:0.071" fill="#707070" d="M 20.5,74.5 C 23.0114,78.6678 25.3448,83.0011 27.5,87.5C 27.5,88.1667 27.5,88.8333 27.5,89.5C 23.1468,86.0159 20.1468,81.5159 18.5,76C 18.8361,74.9701 19.5028,74.4701 20.5,74.5 Z"/></g>
<g><path style="opacity:0.157" fill="#424242" d="M 105.5,74.5 C 106.497,74.4701 107.164,74.9701 107.5,76C 107.018,78.8193 106.018,81.3193 104.5,83.5C 105.291,81.3093 105.291,79.3093 104.5,77.5C 104.263,76.209 104.596,75.209 105.5,74.5 Z"/></g>
<g><path style="opacity:0.38" fill="#828282" d="M 0.5,66.5 C 2.17446,72.3139 3.84113,78.3139 5.5,84.5C 4.83333,84.5 4.16667,84.5 3.5,84.5C 1.21099,78.7661 0.210993,72.7661 0.5,66.5 Z"/></g>
<g><path style="opacity:0.596" fill="#414141" d="M 124.5,69.5 C 124.5,71.8333 124.5,74.1667 124.5,76.5C 122.744,77.5521 122.077,79.2188 122.5,81.5C 120.974,83.9189 119.307,86.2522 117.5,88.5C 119.993,82.1723 122.326,75.8389 124.5,69.5 Z"/></g>
<g><path style="opacity:0.063" fill="#a8a8a8" d="M 124.5,76.5 C 124.5,78.1667 124.5,79.8333 124.5,81.5C 123.833,81.5 123.167,81.5 122.5,81.5C 122.077,79.2188 122.744,77.5521 124.5,76.5 Z"/></g>
<g><path style="opacity:0.047" fill="#b6b6b6" d="M 122.5,81.5 C 121.418,89.6707 117.751,96.3373 111.5,101.5C 111.975,99.2163 112.975,97.2163 114.5,95.5C 115.957,93.3718 116.957,91.0384 117.5,88.5C 119.307,86.2522 120.974,83.9189 122.5,81.5 Z"/></g>
<g><path style="opacity:0.016" fill="#b1b1b1" d="M 3.5,84.5 C 4.16667,84.5 4.83333,84.5 5.5,84.5C 9.31855,91.3082 13.3186,97.9748 17.5,104.5C 10.9557,99.2663 6.28908,92.5996 3.5,84.5 Z"/></g>
<g><path style="opacity:0.176" fill="#9e9e9e" d="M 104.5,77.5 C 105.291,79.3093 105.291,81.3093 104.5,83.5C 103.662,83.8417 103.328,84.5084 103.5,85.5C 100,89.3076 96.3333,92.9742 92.5,96.5C 91.2022,97.1157 90.2022,97.1157 89.5,96.5C 92.1248,92.7071 95.2915,89.3737 99,86.5C 100.578,83.1487 102.411,80.1487 104.5,77.5 Z"/></g>
<g><path style="opacity:0.733" fill="#333333" d="M 103.5,85.5 C 101.245,90.7565 97.5784,94.7565 92.5,97.5C 92.5,97.1667 92.5,96.8333 92.5,96.5C 96.3333,92.9742 100,89.3076 103.5,85.5 Z"/></g>
<g><path style="opacity:0.039" fill="#ababab" d="M 27.5,87.5 C 31.0408,90.2227 34.3741,93.2227 37.5,96.5C 37.5299,97.4972 37.0299,98.1639 36,98.5C 34.3227,96.9949 32.4894,95.6616 30.5,94.5C 29.241,93.0209 28.241,91.3542 27.5,89.5C 27.5,88.8333 27.5,88.1667 27.5,87.5 Z"/></g>
<g><path style="opacity:0.008" fill="#9c9c9c" d="M 45.5,101.5 C 48.716,101.345 51.3826,102.345 53.5,104.5C 50.2637,104.482 47.597,103.482 45.5,101.5 Z"/></g>
<g><path style="opacity:0.357" fill="#6a6a6a" d="M 89.5,96.5 C 90.2022,97.1157 91.2022,97.1157 92.5,96.5C 92.5,96.8333 92.5,97.1667 92.5,97.5C 88.955,98.8739 85.7883,100.874 83,103.5C 79.7916,103.903 76.7916,104.903 74,106.5C 72.9701,106.164 72.4701,105.497 72.5,104.5C 78.1991,102.082 83.8658,99.4155 89.5,96.5 Z"/></g>
<g><path style="opacity:0.686" fill="#464646" d="M 30.5,94.5 C 32.4894,95.6616 34.3227,96.9949 36,98.5C 37.0299,98.1639 37.5299,97.4972 37.5,96.5C 40.1667,98.1667 42.8333,99.8333 45.5,101.5C 47.597,103.482 50.2637,104.482 53.5,104.5C 53.2089,105.649 52.3756,106.316 51,106.5C 44.5303,104.511 38.3636,101.844 32.5,98.5C 31.2949,97.4231 30.6282,96.0898 30.5,94.5 Z"/></g>
<g><path style="opacity:0.157" fill="#6b6b6b" d="M 114.5,95.5 C 112.975,97.2163 111.975,99.2163 111.5,101.5C 109.5,104.167 107.167,106.5 104.5,108.5C 101.86,109.82 99.1932,111.153 96.5,112.5C 100.804,109.221 104.97,105.555 109,101.5C 109.715,98.3589 111.548,96.3589 114.5,95.5 Z"/></g>
<g><path style="opacity:0.627" fill="#5d5d5d" d="M 56.5,104.5 C 60.5,104.5 64.5,104.5 68.5,104.5C 68.5858,105.496 68.2524,106.329 67.5,107C 64.1667,107.667 60.8333,107.667 57.5,107C 56.7476,106.329 56.4142,105.496 56.5,104.5 Z"/></g>
<g><path style="opacity:0.314" fill="#a4a4a4" d="M 17.5,104.5 C 23.3798,109.235 29.7131,113.235 36.5,116.5C 36.5,117.167 36.5,117.833 36.5,118.5C 28.2815,116.328 21.9482,111.661 17.5,104.5 Z"/></g>
<g><path style="opacity:0.043" fill="#b4b4b4" d="M 104.5,108.5 C 103.748,110.1 102.748,111.6 101.5,113C 97.9836,114.59 94.6503,116.423 91.5,118.5C 91.7329,116.938 92.3995,115.605 93.5,114.5C 94.2223,113.449 95.2223,112.782 96.5,112.5C 99.1932,111.153 101.86,109.82 104.5,108.5 Z"/></g>
<g><path style="opacity:0.276" fill="#7e7e7e" d="M 93.5,114.5 C 92.3995,115.605 91.7329,116.938 91.5,118.5C 88.0211,119.204 84.6877,120.37 81.5,122C 78.854,122.497 76.1873,122.664 73.5,122.5C 79.949,119.714 86.6156,117.048 93.5,114.5 Z"/></g>
<g><path style="opacity:0.702" fill="#3e3e3e" d="M 36.5,116.5 C 40.9961,117.591 45.3294,118.924 49.5,120.5C 46.5176,120.037 43.5176,119.704 40.5,119.5C 39.0413,119.567 37.7079,119.234 36.5,118.5C 36.5,117.833 36.5,117.167 36.5,116.5 Z"/></g>
<g><path style="opacity:0.11" fill="#909090" d="M 40.5,119.5 C 43.5176,119.704 46.5176,120.037 49.5,120.5C 50.3382,120.842 50.6716,121.508 50.5,122.5C 47.7814,122.603 45.1147,122.269 42.5,121.5C 41.2867,121.253 40.62,120.586 40.5,119.5 Z"/></g>
</svg>
