<?xml version="1.0" encoding="UTF-8"?>
<!DOCTYPE svg PUBLIC "-//W3C//DTD SVG 1.1//EN" "http://www.w3.org/Graphics/SVG/1.1/DTD/svg11.dtd">
<svg xmlns="http://www.w3.org/2000/svg" version="1.1" width="125px" height="125px" style="shape-rendering:geometricPrecision; text-rendering:geometricPrecision; image-rendering:optimizeQuality; fill-rule:evenodd; clip-rule:evenodd" xmlns:xlink="http://www.w3.org/1999/xlink">
<g><path style="opacity:1" fill="#fefefe" d="M 72.5,3.5 C 92.1195,8.28641 106.619,19.6197 116,37.5C 116.464,36.9056 116.631,36.2389 116.5,35.5C 118.048,35.8212 118.715,36.8212 118.5,38.5C 117.624,38.3691 116.957,38.7025 116.5,39.5C 123.13,55.1661 123.13,70.8328 116.5,86.5C 107.153,104.846 92.4865,116.513 72.5,121.5C 55.0212,124.214 39.3546,120.214 25.5,109.5C 22.1667,105.5 18.5,101.833 14.5,98.5C 14.0679,97.2905 13.4013,96.2905 12.5,95.5C 12.047,93.4348 11.047,91.7682 9.5,90.5C 8.83333,89.1667 8.16667,87.8333 7.5,86.5C 0.871593,70.8448 0.871593,55.1781 7.5,39.5C 7.04311,38.7025 6.37644,38.3691 5.5,38.5C 5.26269,37.209 5.59603,36.209 6.5,35.5C 7.22158,35.9175 7.72158,36.5842 8,37.5C 10.4957,34.4957 12.329,31.1623 13.5,27.5C 17.9645,23.5368 22.2978,19.3702 26.5,15C 40.164,4.72738 55.4973,0.894047 72.5,3.5 Z M 88.5,28.5 C 90.5,31.8333 93.1667,34.5 96.5,36.5C 97.2378,38.9402 98.5712,40.9402 100.5,42.5C 102.153,46.47 103.487,50.47 104.5,54.5C 104.5,59.8333 104.5,65.1667 104.5,70.5C 102.913,76.9023 100.246,82.9023 96.5,88.5C 93.1667,90.5 90.5,93.1667 88.5,96.5C 83.3979,99.4792 78.0646,101.979 72.5,104C 66.8431,104.499 61.1764,104.666 55.5,104.5C 52.8333,104.167 50.1667,103.833 47.5,103.5C 44.8868,101.282 41.8868,99.6154 38.5,98.5C 34.8273,95.1322 31.1606,91.7988 27.5,88.5C 23.754,82.9023 21.0874,76.9023 19.5,70.5C 19.5,65.1667 19.5,59.8333 19.5,54.5C 21.0874,48.0977 23.754,42.0977 27.5,36.5C 31.1606,33.2012 34.8273,29.8678 38.5,26.5C 39.1667,26.5 39.5,26.1667 39.5,25.5C 42.721,25.1039 45.3877,23.7705 47.5,21.5C 62.3036,18.248 75.9703,20.5813 88.5,28.5 Z"/></g>
<g><path style="opacity:0.075" fill="#686868" d="M 72.5,3.5 C 72.5,3.16667 72.5,2.83333 72.5,2.5C 82.9161,3.44755 92.2494,7.11422 100.5,13.5C 104.167,17.1667 107.833,20.8333 111.5,24.5C 113.381,28.1369 115.048,31.8036 116.5,35.5C 116.631,36.2389 116.464,36.9056 116,37.5C 106.619,19.6197 92.1195,8.28641 72.5,3.5 Z"/></g>
<g><path style="opacity:0.218" fill="#444444" d="M 72.5,2.5 C 72.5,2.83333 72.5,3.16667 72.5,3.5C 55.4973,0.894047 40.164,4.72738 26.5,15C 22.2978,19.3702 17.9645,23.5368 13.5,27.5C 13.8333,26.1667 14.1667,24.8333 14.5,23.5C 19.1667,20.8333 22.8333,17.1667 25.5,12.5C 31.3617,7.76823 38.0283,4.60156 45.5,3C 54.4938,2.50023 63.4938,2.33356 72.5,2.5 Z"/></g>
<g><path style="opacity:0.09" fill="#a2a2a2" d="M 25.5,12.5 C 22.8333,17.1667 19.1667,20.8333 14.5,23.5C 17.8333,19.5 21.5,15.8333 25.5,12.5 Z"/></g>
<g><path style="opacity:0.012" fill="#4f4f4f" d="M 100.5,38.5 C 100.5,39.8333 100.5,41.1667 100.5,42.5C 98.5712,40.9402 97.2378,38.9402 96.5,36.5C 95.5,32.1667 92.8333,29.5 88.5,28.5C 75.9703,20.5813 62.3036,18.248 47.5,21.5C 45.8333,21.5 44.1667,21.5 42.5,21.5C 58.5687,15.4408 74.2353,16.6074 89.5,25C 94.1367,28.7941 97.8034,33.2941 100.5,38.5 Z"/></g>
<g><path style="opacity:0.145" fill="#797979" d="M 42.5,21.5 C 44.1667,21.5 45.8333,21.5 47.5,21.5C 45.3877,23.7705 42.721,25.1039 39.5,25.5C 39.5569,24.391 39.8902,23.391 40.5,22.5C 40.8417,21.6618 41.5084,21.3284 42.5,21.5 Z"/></g>
<g><path style="opacity:0.043" fill="#d1d1d1" d="M 14.5,23.5 C 14.1667,24.8333 13.8333,26.1667 13.5,27.5C 12.8333,27.5 12.1667,27.5 11.5,27.5C 11.4677,25.3812 12.4677,24.0478 14.5,23.5 Z"/></g>
<g><path style="opacity:0.173" fill="#464646" d="M 40.5,22.5 C 39.8902,23.391 39.5569,24.391 39.5,25.5C 39.5,26.1667 39.1667,26.5 38.5,26.5C 37.5768,25.6971 36.5768,25.5304 35.5,26C 31.7862,28.8576 29.1195,32.3576 27.5,36.5C 23.754,42.0977 21.0874,48.0977 19.5,54.5C 18.8333,54.5 18.1667,54.5 17.5,54.5C 19.5131,42.6323 25.1798,32.799 34.5,25C 36.4068,23.878 38.4068,23.0447 40.5,22.5 Z"/></g>
<g><path style="opacity:0.325" fill="#171717" d="M 56.5,27.5 C 59.5,27.5 62.5,27.5 65.5,27.5C 65.5,28.1667 65.5,28.8333 65.5,29.5C 62.5,29.5 59.5,29.5 56.5,29.5C 56.5,28.8333 56.5,28.1667 56.5,27.5 Z"/></g>
<g><path style="opacity:1" fill="#fefffe" d="M 56.5,29.5 C 59.5,29.5 62.5,29.5 65.5,29.5C 80.1857,32.5167 89.8523,41.1834 94.5,55.5C 94.5,60.1667 94.5,64.8333 94.5,69.5C 86.9609,89.6026 72.6275,97.7693 51.5,94C 48.5,92.3333 45.5,90.6667 42.5,89C 39.9638,86.295 37.2971,83.795 34.5,81.5C 29.9861,73.1293 28.3194,64.1293 29.5,54.5C 31.3509,50.9605 33.0175,47.2938 34.5,43.5C 40.5565,36.8063 47.8899,32.1396 56.5,29.5 Z"/></g>
<g><path style="opacity:0.086" fill="#626262" d="M 11.5,27.5 C 12.1667,27.5 12.8333,27.5 13.5,27.5C 12.329,31.1623 10.4957,34.4957 8,37.5C 7.72158,36.5842 7.22158,35.9175 6.5,35.5C 7.8143,32.5388 9.48097,29.8721 11.5,27.5 Z"/></g>
<g><path style="opacity:0.09" fill="#c5c5c5" d="M 38.5,26.5 C 34.8273,29.8678 31.1606,33.2012 27.5,36.5C 29.1195,32.3576 31.7862,28.8576 35.5,26C 36.5768,25.5304 37.5768,25.6971 38.5,26.5 Z"/></g>
<g><path style="opacity:0.09" fill="#d2d2d2" d="M 88.5,28.5 C 92.8333,29.5 95.5,32.1667 96.5,36.5C 93.1667,34.5 90.5,31.8333 88.5,28.5 Z"/></g>
<g><path style="opacity:0.396" fill="#4b4b4b" d="M 65.5,27.5 C 71.6839,28.1264 77.3506,30.1264 82.5,33.5C 83.9047,37.2359 86.5713,39.5692 90.5,40.5C 93.7341,44.9919 95.7341,49.9919 96.5,55.5C 95.8333,55.5 95.1667,55.5 94.5,55.5C 89.8523,41.1834 80.1857,32.5167 65.5,29.5C 65.5,28.8333 65.5,28.1667 65.5,27.5 Z"/></g>
<g><path style="opacity:0.086" fill="#b7b7b7" d="M 82.5,33.5 C 86.3889,34.4433 89.0555,36.7767 90.5,40.5C 86.5713,39.5692 83.9047,37.2359 82.5,33.5 Z"/></g>
<g><path style="opacity:0.22" fill="#a2a2a2" d="M 41.5,33.5 C 39.1792,36.7959 36.8458,40.1292 34.5,43.5C 33.1667,44.1667 31.8333,44.8333 30.5,45.5C 31.5114,43.6284 32.3448,41.6284 33,39.5C 35.2627,36.6248 38.096,34.6248 41.5,33.5 Z"/></g>
<g><path style="opacity:0.643" fill="#3f3f3f" d="M 56.5,27.5 C 56.5,28.1667 56.5,28.8333 56.5,29.5C 47.8899,32.1396 40.5565,36.8063 34.5,43.5C 36.8458,40.1292 39.1792,36.7959 41.5,33.5C 46.0396,30.4436 51.0396,28.4436 56.5,27.5 Z"/></g>
<g><path style="opacity:0.431" fill="#363636" d="M 100.5,38.5 C 101.79,39.0577 102.623,40.0577 103,41.5C 104.463,45.4226 105.63,49.4226 106.5,53.5C 105.833,53.8333 105.167,54.1667 104.5,54.5C 103.487,50.47 102.153,46.47 100.5,42.5C 100.5,41.1667 100.5,39.8333 100.5,38.5 Z"/></g>
<g><path style="opacity:0.125" fill="#424242" d="M 34.5,43.5 C 33.0175,47.2938 31.3509,50.9605 29.5,54.5C 28.8333,54.5 28.1667,54.5 27.5,54.5C 28.2655,51.3298 29.2655,48.3298 30.5,45.5C 31.8333,44.8333 33.1667,44.1667 34.5,43.5 Z"/></g>
<g><path style="opacity:0.069" fill="#000000" d="M 17.5,54.5 C 18.1667,54.5 18.8333,54.5 19.5,54.5C 19.5,59.8333 19.5,65.1667 19.5,70.5C 18.8333,70.8333 18.1667,71.1667 17.5,71.5C 17.5,65.8333 17.5,60.1667 17.5,54.5 Z"/></g>
<g><path style="opacity:0.152" fill="#171717" d="M 27.5,54.5 C 28.1667,54.5 28.8333,54.5 29.5,54.5C 28.3194,64.1293 29.9861,73.1293 34.5,81.5C 32.6666,79.8883 30.9999,78.2216 29.5,76.5C 27.6129,69.4037 26.9463,62.0704 27.5,54.5 Z"/></g>
<g><path style="opacity:0.069" fill="#010101" d="M 106.5,53.5 C 106.5,59.5 106.5,65.5 106.5,71.5C 105.833,71.1667 105.167,70.8333 104.5,70.5C 104.5,65.1667 104.5,59.8333 104.5,54.5C 105.167,54.1667 105.833,53.8333 106.5,53.5 Z"/></g>
<g><path style="opacity:0.15" fill="#000000" d="M 94.5,55.5 C 95.1667,55.5 95.8333,55.5 96.5,55.5C 96.5,60.1667 96.5,64.8333 96.5,69.5C 95.8333,69.5 95.1667,69.5 94.5,69.5C 94.5,64.8333 94.5,60.1667 94.5,55.5 Z"/></g>
<g><path style="opacity:0.314" fill="#3e3e3e" d="M 5.5,38.5 C 6.37644,38.3691 7.04311,38.7025 7.5,39.5C 0.871593,55.1781 0.871593,70.8448 7.5,86.5C 6.83333,86.5 6.16667,86.5 5.5,86.5C 2.1193,78.9521 0.785968,70.9521 1.5,62.5C 0.785968,54.0479 2.1193,46.0479 5.5,38.5 Z"/></g>
<g><path style="opacity:0.155" fill="#4d4d4d" d="M 118.5,38.5 C 121.881,46.0479 123.214,54.0479 122.5,62.5C 123.214,70.9521 121.881,78.9521 118.5,86.5C 117.833,86.5 117.167,86.5 116.5,86.5C 123.13,70.8328 123.13,55.1661 116.5,39.5C 116.957,38.7025 117.624,38.3691 118.5,38.5 Z"/></g>
<g><path style="opacity:0.506" fill="#4a4a4a" d="M 19.5,70.5 C 21.0874,76.9023 23.754,82.9023 27.5,88.5C 27.6287,90.2161 27.962,91.8828 28.5,93.5C 22.207,87.5808 18.5403,80.2475 17.5,71.5C 18.1667,71.1667 18.8333,70.8333 19.5,70.5 Z"/></g>
<g><path style="opacity:0.043" fill="#bababa" d="M 29.5,76.5 C 30.9999,78.2216 32.6666,79.8883 34.5,81.5C 36.8333,84.8333 39.1667,88.1667 41.5,91.5C 34.5988,88.9218 30.5988,83.9218 29.5,76.5 Z"/></g>
<g><path style="opacity:0.067" fill="#bdbdbd" d="M 90.5,85.5 C 88.5739,88.4655 85.9072,90.4655 82.5,91.5C 83.9324,87.3489 86.5991,85.3489 90.5,85.5 Z"/></g>
<g><path style="opacity:0.098" fill="#d3d3d3" d="M 96.5,88.5 C 95.4829,92.8505 92.8162,95.5171 88.5,96.5C 90.5,93.1667 93.1667,90.5 96.5,88.5 Z"/></g>
<g><path style="opacity:0.396" fill="#4f4f4f" d="M 104.5,70.5 C 105.167,70.8333 105.833,71.1667 106.5,71.5C 99.5038,98.4016 82.1705,110.068 54.5,106.5C 54.8333,105.833 55.1667,105.167 55.5,104.5C 61.1764,104.666 66.8431,104.499 72.5,104C 78.0646,101.979 83.3979,99.4792 88.5,96.5C 92.8162,95.5171 95.4829,92.8505 96.5,88.5C 100.246,82.9023 102.913,76.9023 104.5,70.5 Z"/></g>
<g><path style="opacity:0.035" fill="#7c7c7c" d="M 5.5,86.5 C 6.16667,86.5 6.83333,86.5 7.5,86.5C 8.16667,87.8333 8.83333,89.1667 9.5,90.5C 9.83333,91.8333 10.1667,93.1667 10.5,94.5C 9.62356,94.6309 8.95689,94.2975 8.5,93.5C 7.29433,91.2062 6.29433,88.8728 5.5,86.5 Z"/></g>
<g><path style="opacity:0.435" fill="#2b2b2b" d="M 9.5,90.5 C 11.047,91.7682 12.047,93.4348 12.5,95.5C 11.8333,95.5 11.1667,95.5 10.5,95.5C 10.5,95.1667 10.5,94.8333 10.5,94.5C 10.1667,93.1667 9.83333,91.8333 9.5,90.5 Z"/></g>
<g><path style="opacity:0.149" fill="#474747" d="M 94.5,69.5 C 95.1667,69.5 95.8333,69.5 96.5,69.5C 95.7107,75.3512 93.7107,80.6845 90.5,85.5C 86.5991,85.3489 83.9324,87.3489 82.5,91.5C 76.6305,95.7469 69.9638,97.7469 62.5,97.5C 59.1667,97.3333 55.8333,97.1667 52.5,97C 48.4492,95.8237 44.7826,93.9904 41.5,91.5C 39.1667,88.1667 36.8333,84.8333 34.5,81.5C 37.2971,83.795 39.9638,86.295 42.5,89C 45.5,90.6667 48.5,92.3333 51.5,94C 72.6275,97.7693 86.9609,89.6026 94.5,69.5 Z"/></g>
<g><path style="opacity:0.09" fill="#bababa" d="M 27.5,88.5 C 31.1606,91.7988 34.8273,95.1322 38.5,98.5C 37.8501,98.8039 37.1835,99.1373 36.5,99.5C 34.5,98.1667 32.8333,96.5 31.5,94.5C 30.5832,93.8728 29.5832,93.5394 28.5,93.5C 27.962,91.8828 27.6287,90.2161 27.5,88.5 Z"/></g>
<g><path style="opacity:0.161" fill="#9d9d9d" d="M 10.5,95.5 C 11.1667,95.5 11.8333,95.5 12.5,95.5C 13.4013,96.2905 14.0679,97.2905 14.5,98.5C 15.1667,100.167 15.8333,101.833 16.5,103.5C 13.0656,102.023 11.0656,99.3567 10.5,95.5 Z"/></g>
<g><path style="opacity:0.027" fill="#6c6c6c" d="M 116.5,86.5 C 117.167,86.5 117.833,86.5 118.5,86.5C 110.111,107.179 94.7779,119.179 72.5,122.5C 72.5,122.167 72.5,121.833 72.5,121.5C 92.4865,116.513 107.153,104.846 116.5,86.5 Z"/></g>
<g><path style="opacity:0.145" fill="#595959" d="M 28.5,93.5 C 29.5832,93.5394 30.5832,93.8728 31.5,94.5C 32.8333,96.5 34.5,98.1667 36.5,99.5C 37.1835,99.1373 37.8501,98.8039 38.5,98.5C 41.8868,99.6154 44.8868,101.282 47.5,103.5C 45.8333,103.5 44.1667,103.5 42.5,103.5C 36.458,102.129 31.7914,98.796 28.5,93.5 Z"/></g>
<g><path style="opacity:0.341" fill="#323232" d="M 42.5,103.5 C 44.1667,103.5 45.8333,103.5 47.5,103.5C 50.1667,103.833 52.8333,104.167 55.5,104.5C 55.1667,105.167 54.8333,105.833 54.5,106.5C 50.076,106.728 46.076,105.728 42.5,103.5 Z"/></g>
<g><path style="opacity:0.329" fill="#454545" d="M 14.5,98.5 C 18.5,101.833 22.1667,105.5 25.5,109.5C 23.5,108.5 21.5,107.5 19.5,106.5C 17.8564,106.19 16.8564,105.19 16.5,103.5C 15.8333,101.833 15.1667,100.167 14.5,98.5 Z"/></g>
<g><path style="opacity:0.263" fill="#4f4f4f" d="M 19.5,106.5 C 21.5,107.5 23.5,108.5 25.5,109.5C 39.3546,120.214 55.0212,124.214 72.5,121.5C 72.5,121.833 72.5,122.167 72.5,122.5C 62.7996,122.783 53.1329,122.449 43.5,121.5C 33.7648,118.982 25.7648,113.982 19.5,106.5 Z"/></g>
</svg>
